<svg xmlns="http://www.w3.org/2000/svg" xmlns:xlink="http://www.w3.org/1999/xlink" xmlns:lucid="lucid" width="1871" height="1355"><g transform="translate(104 419)" lucid:page-tab-id="0_0"><path d="M-500-500h2500v1500H-500z" fill="#fff"/><path d="M-96.33-406.5a6 6 0 0 1 6-6h1842a6 6 0 0 1 6 6v1333a6 6 0 0 1-6 6h-1842a6 6 0 0 1-6-6z" stroke="#edf5ff" stroke-width="2" fill="#f2f3f5"/><path d="M-96.33-454.75a6 6 0 0 1 6-6H53.1a6 6 0 0 1 6 6v24.25a6 6 0 0 1-6 6H-90.34a6 6 0 0 1-6-6z" fill="#edf5ff"/><use xlink:href="#a" transform="matrix(1,0,0,1,-88.33333333333314,-452.75474609375) translate(0 16.589501953125)"/><use xlink:href="#b" transform="matrix(1,0,0,1,-88.33333333333314,-452.75474609375) translate(106.50498046875 16.589501953125)"/><path d="M-16.33-265a12 12 0 0 1 12-12h332a12 12 0 0 1 12 12v238a12 12 0 0 1-12 12h-332a12 12 0 0 1-12-12z" fill="#edf5ff"/><path d="M-16.33-237h356v38h-356z" fill="#edf5ff"/><path d="M-16.33-200h356v38h-356z" fill="#edf5ff"/><path d="M-16.33-163h356v38h-356z" fill="#edf5ff"/><path d="M-16.33-126h356v38h-356z" fill="#edf5ff"/><path d="M-16.33-89h356v38h-356z" fill="#edf5ff"/><path d="M-16.33-52h356v25a12 12 0 0 1-12 12h-332a12 12 0 0 1-12-12z" fill="#edf5ff"/><path d="M-15.33-237h354-354zM-16.33-265a12 12 0 0 1 12-12h332a12 12 0 0 1 12 12v238a12 12 0 0 1-12 12h-332a12 12 0 0 1-12-12zM161.67-236v220z" stroke="#6db1ff" stroke-width="2" fill="none"/><use xlink:href="#c" transform="matrix(1,0,0,1,-6.333333333333144,-277) translate(138.77365451388889 28.08376736111111)"/><use xlink:href="#d" transform="matrix(1,0,0,1,-11.333333333333144,-234.5) translate(0 24.08376736111111)"/><use xlink:href="#e" transform="matrix(1,0,0,1,-11.333333333333144,-234.5) translate(25.23871527777778 24.08376736111111)"/><use xlink:href="#f" transform="matrix(1,0,0,1,166.66666666666686,-234.5) translate(0 24.08376736111111)"/><use xlink:href="#g" transform="matrix(1,0,0,1,-11.333333333333144,-197.5) translate(0 24.08376736111111)"/><use xlink:href="#h" transform="matrix(1,0,0,1,166.66666666666686,-197.5) translate(0 24.08376736111111)"/><use xlink:href="#i" transform="matrix(1,0,0,1,-11.333333333333144,-160.5) translate(0 24.08376736111111)"/><use xlink:href="#h" transform="matrix(1,0,0,1,166.66666666666686,-160.5) translate(0 24.08376736111111)"/><use xlink:href="#j" transform="matrix(1,0,0,1,-11.333333333333144,-123.5) translate(0 24.08376736111111)"/><use xlink:href="#h" transform="matrix(1,0,0,1,166.66666666666686,-123.5) translate(0 24.08376736111111)"/><use xlink:href="#k" transform="matrix(1,0,0,1,-11.333333333333144,-86.5) translate(0 24.08376736111111)"/><use xlink:href="#h" transform="matrix(1,0,0,1,166.66666666666686,-86.5) translate(0 24.08376736111111)"/><use xlink:href="#l" transform="matrix(1,0,0,1,-11.333333333333144,-49.5) translate(0 24.08376736111111)"/><use xlink:href="#m" transform="matrix(1,0,0,1,166.66666666666686,-49.5) translate(0 24.08376736111111)"/><path d="M652.67 378.67a12 12 0 0 1 12-12h332a12 12 0 0 1 12 12v460a12 12 0 0 1-12 12h-332a12 12 0 0 1-12-12z" fill="#edf5ff"/><path d="M652.67 406.67h356v38h-356z" fill="#edf5ff"/><path d="M652.67 443.67h356v38h-356z" fill="#edf5ff"/><path d="M652.67 480.67h356v38h-356z" fill="#edf5ff"/><path d="M652.67 517.67h356v38h-356z" fill="#edf5ff"/><path d="M652.67 554.67h356v38h-356z" fill="#edf5ff"/><path d="M652.67 591.67h356v38h-356z" fill="#edf5ff"/><path d="M652.67 628.67h356v38h-356z" fill="#edf5ff"/><path d="M652.67 665.67h356v38h-356z" fill="#edf5ff"/><path d="M652.67 702.67h356v38h-356z" fill="#edf5ff"/><path d="M652.67 739.67h356v38h-356z" fill="#edf5ff"/><path d="M652.67 776.67h356v38h-356z" fill="#edf5ff"/><path d="M652.67 813.67h356v25a12 12 0 0 1-12 12h-332a12 12 0 0 1-12-12z" fill="#edf5ff"/><path d="M653.67 406.67h354-354zM652.67 378.67a12 12 0 0 1 12-12h332a12 12 0 0 1 12 12v460a12 12 0 0 1-12 12h-332a12 12 0 0 1-12-12zM830.67 407.67v442z" stroke="#6db1ff" stroke-width="2" fill="none"/><use xlink:href="#n" transform="matrix(1,0,0,1,662.6666666666669,366.66666666666674) translate(113.68142361111111 28.08376736111111)"/><use xlink:href="#d" transform="matrix(1,0,0,1,657.6666666666669,409.16666666666674) translate(0 24.08376736111111)"/><use xlink:href="#e" transform="matrix(1,0,0,1,657.6666666666669,409.16666666666674) translate(25.23871527777778 24.08376736111111)"/><use xlink:href="#f" transform="matrix(1,0,0,1,835.6666666666669,409.16666666666674) translate(0 24.08376736111111)"/><use xlink:href="#o" transform="matrix(1,0,0,1,657.6666666666669,446.16666666666674) translate(0 24.08376736111111)"/><use xlink:href="#p" transform="matrix(1,0,0,1,657.6666666666669,446.16666666666674) translate(82.31336805555554 24.08376736111111)"/><use xlink:href="#f" transform="matrix(1,0,0,1,835.6666666666669,446.16666666666674) translate(0 24.08376736111111)"/><use xlink:href="#q" transform="matrix(1,0,0,1,657.6666666666669,483.16666666666674) translate(0 24.08376736111111)"/><use xlink:href="#p" transform="matrix(1,0,0,1,657.6666666666669,483.16666666666674) translate(127.91883680555556 24.08376736111111)"/><use xlink:href="#f" transform="matrix(1,0,0,1,835.6666666666669,483.16666666666674) translate(0 24.08376736111111)"/><use xlink:href="#r" transform="matrix(1,0,0,1,657.6666666666669,520.1666666666667) translate(0 24.08376736111111)"/><use xlink:href="#h" transform="matrix(1,0,0,1,835.6666666666669,520.1666666666667) translate(0 24.08376736111111)"/><use xlink:href="#s" transform="matrix(1,0,0,1,657.6666666666669,557.1666666666667) translate(0 24.08376736111111)"/><use xlink:href="#t" transform="matrix(1,0,0,1,835.6666666666669,557.1666666666667) translate(0 24.08376736111111)"/><use xlink:href="#u" transform="matrix(1,0,0,1,657.6666666666669,594.1666666666667) translate(0 24.08376736111111)"/><use xlink:href="#v" transform="matrix(1,0,0,1,835.6666666666669,594.1666666666667) translate(0 24.08376736111111)"/><use xlink:href="#w" transform="matrix(1,0,0,1,657.6666666666669,631.1666666666667) translate(0 24.08376736111111)"/><use xlink:href="#f" transform="matrix(1,0,0,1,835.6666666666669,631.1666666666667) translate(0 24.08376736111111)"/><use xlink:href="#x" transform="matrix(1,0,0,1,657.6666666666669,668.1666666666667) translate(0 24.08376736111111)"/><use xlink:href="#h" transform="matrix(1,0,0,1,835.6666666666669,668.1666666666667) translate(0 24.08376736111111)"/><use xlink:href="#y" transform="matrix(1,0,0,1,657.6666666666669,705.1666666666667) translate(0 24.08376736111111)"/><use xlink:href="#h" transform="matrix(1,0,0,1,835.6666666666669,705.1666666666667) translate(0 24.08376736111111)"/><use xlink:href="#z" transform="matrix(1,0,0,1,657.6666666666669,742.1666666666667) translate(0 24.08376736111111)"/><use xlink:href="#A" transform="matrix(1,0,0,1,835.6666666666669,742.1666666666667) translate(0 24.08376736111111)"/><use xlink:href="#l" transform="matrix(1,0,0,1,657.6666666666669,779.1666666666667) translate(0 24.08376736111111)"/><use xlink:href="#m" transform="matrix(1,0,0,1,835.6666666666669,779.1666666666667) translate(0 24.08376736111111)"/><use xlink:href="#B" transform="matrix(1,0,0,1,657.6666666666669,816.1666666666667) translate(0 24.08376736111111)"/><use xlink:href="#m" transform="matrix(1,0,0,1,835.6666666666669,816.1666666666667) translate(0 24.08376736111111)"/><path d="M639.67-320.5a12 12 0 0 1 12-12h358a12 12 0 0 1 12 12v349a12 12 0 0 1-12 12h-358a12 12 0 0 1-12-12z" fill="#edf5ff"/><path d="M639.67-292.5h382v38h-382z" fill="#edf5ff"/><path d="M639.67-255.5h382v38h-382z" fill="#edf5ff"/><path d="M639.67-218.5h382v38h-382z" fill="#edf5ff"/><path d="M639.67-181.5h382v38h-382z" fill="#edf5ff"/><path d="M639.67-144.5h382v38h-382z" fill="#edf5ff"/><path d="M639.67-107.5h382v38h-382z" fill="#edf5ff"/><path d="M639.67-70.5h382v38h-382z" fill="#edf5ff"/><path d="M639.67-33.5h382v38h-382z" fill="#edf5ff"/><path d="M639.67 3.5h382v25a12 12 0 0 1-12 12h-358a12 12 0 0 1-12-12z" fill="#edf5ff"/><path d="M640.67-292.5h380-380zM639.67-320.5a12 12 0 0 1 12-12h358a12 12 0 0 1 12 12v349a12 12 0 0 1-12 12h-358a12 12 0 0 1-12-12zM830.67-291.5v331z" stroke="#6db1ff" stroke-width="2" fill="none"/><use xlink:href="#C" transform="matrix(1,0,0,1,649.6666666666669,-332.5) translate(143.50542534722223 28.08376736111111)"/><use xlink:href="#d" transform="matrix(1,0,0,1,644.6666666666669,-290) translate(0 24.08376736111111)"/><use xlink:href="#e" transform="matrix(1,0,0,1,644.6666666666669,-290) translate(25.23871527777778 24.08376736111111)"/><use xlink:href="#f" transform="matrix(1,0,0,1,835.6666666666669,-290) translate(0 24.08376736111111)"/><use xlink:href="#o" transform="matrix(1,0,0,1,644.6666666666669,-253) translate(0 24.08376736111111)"/><use xlink:href="#p" transform="matrix(1,0,0,1,644.6666666666669,-253) translate(82.31336805555554 24.08376736111111)"/><use xlink:href="#f" transform="matrix(1,0,0,1,835.6666666666669,-253) translate(0 24.08376736111111)"/><use xlink:href="#D" transform="matrix(1,0,0,1,644.6666666666669,-216) translate(0 24.08376736111111)"/><use xlink:href="#h" transform="matrix(1,0,0,1,835.6666666666669,-216) translate(0 24.08376736111111)"/><use xlink:href="#E" transform="matrix(1,0,0,1,644.6666666666669,-179) translate(0 24.08376736111111)"/><use xlink:href="#v" transform="matrix(1,0,0,1,835.6666666666669,-179) translate(0 24.08376736111111)"/><use xlink:href="#F" transform="matrix(1,0,0,1,644.6666666666669,-142) translate(0 24.08376736111111)"/><use xlink:href="#h" transform="matrix(1,0,0,1,835.6666666666669,-142) translate(0 24.08376736111111)"/><use xlink:href="#G" transform="matrix(1,0,0,1,644.6666666666669,-105) translate(0 24.08376736111111)"/><use xlink:href="#t" transform="matrix(1,0,0,1,835.6666666666669,-105) translate(0 24.08376736111111)"/><use xlink:href="#H" transform="matrix(1,0,0,1,644.6666666666669,-68) translate(0 24.08376736111111)"/><use xlink:href="#t" transform="matrix(1,0,0,1,835.6666666666669,-68) translate(0 24.08376736111111)"/><use xlink:href="#I" transform="matrix(1,0,0,1,644.6666666666669,-31) translate(0 24.08376736111111)"/><use xlink:href="#m" transform="matrix(1,0,0,1,835.6666666666669,-31) translate(0 24.08376736111111)"/><use xlink:href="#B" transform="matrix(1,0,0,1,644.6666666666669,6) translate(0 24.08376736111111)"/><use xlink:href="#m" transform="matrix(1,0,0,1,835.6666666666669,6) translate(0 24.08376736111111)"/><path d="M1321.67-283.5a12 12 0 0 1 12-12h332a12 12 0 0 1 12 12v275a12 12 0 0 1-12 12h-332a12 12 0 0 1-12-12z" fill="#edf5ff"/><path d="M1321.67-255.5h356v38h-356z" fill="#edf5ff"/><path d="M1321.67-218.5h356v38h-356z" fill="#edf5ff"/><path d="M1321.67-181.5h356v38h-356z" fill="#edf5ff"/><path d="M1321.67-144.5h356v38h-356z" fill="#edf5ff"/><path d="M1321.67-107.5h356v38h-356z" fill="#edf5ff"/><path d="M1321.67-70.5h356v38h-356z" fill="#edf5ff"/><path d="M1321.67-33.5h356v25a12 12 0 0 1-12 12h-332a12 12 0 0 1-12-12z" fill="#edf5ff"/><path d="M1322.67-255.5h354-354zM1321.67-283.5a12 12 0 0 1 12-12h332a12 12 0 0 1 12 12v275a12 12 0 0 1-12 12h-332a12 12 0 0 1-12-12zM1499.67-254.5v257z" stroke="#6db1ff" stroke-width="2" fill="none"/><use xlink:href="#J" transform="matrix(1,0,0,1,1331.666666666667,-295.5) translate(98.19205729166666 28.08376736111111)"/><use xlink:href="#d" transform="matrix(1,0,0,1,1326.666666666667,-253) translate(0 24.08376736111111)"/><use xlink:href="#e" transform="matrix(1,0,0,1,1326.666666666667,-253) translate(25.23871527777778 24.08376736111111)"/><use xlink:href="#f" transform="matrix(1,0,0,1,1504.666666666667,-253) translate(0 24.08376736111111)"/><use xlink:href="#K" transform="matrix(1,0,0,1,1326.666666666667,-216) translate(0 24.08376736111111)"/><use xlink:href="#p" transform="matrix(1,0,0,1,1326.666666666667,-216) translate(92.37196180555554 24.08376736111111)"/><use xlink:href="#f" transform="matrix(1,0,0,1,1504.666666666667,-216) translate(0 24.08376736111111)"/><use xlink:href="#L" transform="matrix(1,0,0,1,1326.666666666667,-179) translate(0 24.08376736111111)"/><use xlink:href="#p" transform="matrix(1,0,0,1,1326.666666666667,-179) translate(117.76258680555556 24.08376736111111)"/><use xlink:href="#f" transform="matrix(1,0,0,1,1504.666666666667,-179) translate(0 24.08376736111111)"/><use xlink:href="#M" transform="matrix(1,0,0,1,1326.666666666667,-142) translate(0 24.08376736111111)"/><use xlink:href="#f" transform="matrix(1,0,0,1,1504.666666666667,-142) translate(0 24.08376736111111)"/><use xlink:href="#N" transform="matrix(1,0,0,1,1326.666666666667,-105) translate(0 24.08376736111111)"/><use xlink:href="#v" transform="matrix(1,0,0,1,1504.666666666667,-105) translate(0 24.08376736111111)"/><use xlink:href="#O" transform="matrix(1,0,0,1,1326.666666666667,-68) translate(0 24.08376736111111)"/><use xlink:href="#v" transform="matrix(1,0,0,1,1504.666666666667,-68) translate(0 24.08376736111111)"/><use xlink:href="#l" transform="matrix(1,0,0,1,1326.666666666667,-31) translate(0 24.08376736111111)"/><use xlink:href="#m" transform="matrix(1,0,0,1,1504.666666666667,-31) translate(0 24.08376736111111)"/><path d="M-16.33 526.67a12 12 0 0 1 12-12h332a12 12 0 0 1 12 12v164a12 12 0 0 1-12 12h-332a12 12 0 0 1-12-12z" fill="#edf5ff"/><path d="M-16.33 554.67h356v38h-356z" fill="#edf5ff"/><path d="M-16.33 591.67h356v38h-356z" fill="#edf5ff"/><path d="M-16.33 628.67h356v38h-356z" fill="#edf5ff"/><path d="M-16.33 665.67h356v25a12 12 0 0 1-12 12h-332a12 12 0 0 1-12-12z" fill="#edf5ff"/><path d="M-15.33 554.67h354-354zM-16.33 526.67a12 12 0 0 1 12-12h332a12 12 0 0 1 12 12v164a12 12 0 0 1-12 12h-332a12 12 0 0 1-12-12zM161.67 555.67v146z" stroke="#6db1ff" stroke-width="2" fill="none"/><use xlink:href="#P" transform="matrix(1,0,0,1,-6.333333333333144,514.6666666666667) translate(108.31575520833334 28.08376736111111)"/><use xlink:href="#d" transform="matrix(1,0,0,1,-11.333333333333144,557.1666666666667) translate(0 24.08376736111111)"/><use xlink:href="#e" transform="matrix(1,0,0,1,-11.333333333333144,557.1666666666667) translate(25.23871527777778 24.08376736111111)"/><use xlink:href="#f" transform="matrix(1,0,0,1,166.66666666666686,557.1666666666667) translate(0 24.08376736111111)"/><use xlink:href="#r" transform="matrix(1,0,0,1,-11.333333333333144,594.1666666666667) translate(0 24.08376736111111)"/><use xlink:href="#h" transform="matrix(1,0,0,1,166.66666666666686,594.1666666666667) translate(0 24.08376736111111)"/><use xlink:href="#s" transform="matrix(1,0,0,1,-11.333333333333144,631.1666666666667) translate(0 24.08376736111111)"/><use xlink:href="#h" transform="matrix(1,0,0,1,166.66666666666686,631.1666666666667) translate(0 24.08376736111111)"/><use xlink:href="#l" transform="matrix(1,0,0,1,-11.333333333333144,668.1666666666667) translate(0 24.08376736111111)"/><use xlink:href="#m" transform="matrix(1,0,0,1,166.66666666666686,668.1666666666667) translate(0 24.08376736111111)"/><path d="M490.14 543.65l.07.88.2.85.35.8.45.74.56.66.66.56.74.45.8.32.84.2.88.08h116v.94H495.64l-1-.07-.98-.24-.94-.4-.87-.52-.77-.65-.67-.77-.53-.87-.4-.93-.23-1-.08-.98V241.7h.94zm-5.46-644.8l1 .24.93.38.87.53.78.67.66.78.54.86.4.95.22 1 .08.98V220.2h-.95V-94.72l-.08-.88-.2-.85-.33-.8-.47-.74-.56-.65-.66-.57-.73-.45-.8-.33-.84-.2-.88-.07H360.67v-.95h123z" stroke="#3a414a" stroke-width=".05" fill="#3a414a"/><path d="M351.14-101.22h9.05v-9.53h.94v20h-.95v-9.52h-9.06v9.52h-.95v-9.52h-9.53v-.95h9.52v-9.53h.94z" stroke="#3a414a" stroke-width=".05" fill="#3a414a"/><path d="M624.6 540.18l2.75 1.42 2.16 2.16 1.43 2.75.5 3.17-.5 3.16-1.42 2.75-2.15 2.16-2.75 1.42-3.16.5-3.16-.5-2.74-1.42-2.17-2.16-1.42-2.75-.5-3.16.5-3.16 1.42-2.74 2.17-2.16 2.74-1.42 3.16-.5zm26.84 19.5l-20-10m20-10l-20 10m0 0h20" fill="#fff"/><path d="M624.75 539.72l2.88 1.5 2.27 2.26 1.5 2.88.4 2.6 19.43-9.7.42.84-18.2 9.1h18v.94h-18l18.2 9.1-.42.86-19.42-9.72-.4 2.6-1.5 2.88-2.27 2.27-2.88 1.5-3.3.52-3.32-.53-2.88-1.5-2.27-2.26-1.48-2.88-.54-3.3.54-3.32 1.48-2.88 2.27-2.27 2.88-1.48 3.3-.53zm-6.32.92l-2.6 1.35-2.07 2.05-1.35 2.6-.48 3.02.5 3 1.34 2.62 2.06 2.05 2.6 1.35 3.02.5 3-.5 2.63-1.35 2.06-2.06 1.35-2.62.48-3-.48-3.02-1.35-2.6-2.06-2.07-2.62-1.36-3-.5z" stroke="#3a414a" stroke-width=".05" fill="#3a414a"/><use xlink:href="#Q" transform="matrix(1,0,0,1,457.04947916666686,220.2064021535581) translate(0 17.22222222222222)"/><path d="M593.68-189.64l1 .24.93.4.87.52.78.66.66.77.54.87.4.94.22 1 .08.98v54.35h-.95v-54.32l-.08-.9-.2-.83-.33-.8-.47-.74-.56-.65-.66-.56-.73-.46-.8-.34-.84-.2-.88-.07H548.5v-.95h44.18zm-233 .87v-.95h130.48v.95z" stroke="#3a414a" stroke-width=".05" fill="#3a414a"/><path d="M351.14-189.72h9.05v-9.52h.94v20h-.95v-9.53h-9.06v9.53h-.95v-9.53h-9.53v-.95h9.52v-9.52h.94z" stroke="#3a414a" stroke-width=".05" fill="#3a414a"/><path d="M611.6-138.4l2.75 1.42 2.16 2.16 1.43 2.75.5 3.16-.5 3.15-1.42 2.75-2.15 2.16-2.75 1.42-3.16.5-3.16-.5-2.74-1.42-2.17-2.16-1.42-2.75-.5-3.16.5-3.17 1.42-2.75 2.17-2.16 2.74-1.42 3.16-.5zm26.84 19.5l-20-10m20-10l-20 10m0 0h20" fill="#fff"/><path d="M611.75-138.86l2.88 1.5 2.27 2.26 1.5 2.88.4 2.6 19.43-9.72.42.85-18.2 9.1h18v.96h-18l18.2 9.1-.42.85-19.42-9.7-.4 2.6-1.5 2.88-2.27 2.27-2.88 1.5-3.3.52-3.32-.53-2.88-1.5-2.27-2.26-1.48-2.88-.54-3.3.54-3.32 1.48-2.88 2.27-2.27 2.88-1.5 3.3-.52zm-6.32.92l-2.6 1.35-2.07 2.07-1.35 2.6-.48 3.02.5 3 1.34 2.6 2.06 2.07 2.6 1.35 3.02.5 3-.5 2.63-1.35 2.06-2.06 1.35-2.6.48-3-.48-3.02-1.35-2.6-2.06-2.07-2.62-1.34-3-.5z" stroke="#3a414a" stroke-width=".05" fill="#3a414a"/><use xlink:href="#R" transform="matrix(1,0,0,1,491.155740523544,-199.99678136704122) translate(0 17.22222222222222)"/><path d="M1716.25 640.43l-.78.66-.86.52-.93.4-1 .23-1 .08h-682v-.95h681.98l.88-.07.84-.2.8-.33.68-.4h1.46zm1.9-21.58h-.96v-669.5h.94z" stroke="#3a414a" stroke-width=".05" fill="#3a414a"/><path d="M1020.14 641.38h9.05v-9.53h.94v20h-.95v-9.52h-9.06v9.52h-.95v-9.52h-9.53v-.95h9.52v-9.53h.94z" stroke="#3a414a" stroke-width=".05" fill="#3a414a"/><path d="M1712.04-60.35l2.75 1.4 2.15 2.18 1.42 2.74.5 3.16-.5 3.17-1.42 2.74-2.16 2.17-2.76 1.42-3.16.52-3.16-.52-2.75-1.4-2.16-2.18-1.4-2.74-.52-3.16.5-3.17 1.43-2.74 2.17-2.16 2.75-1.42 3.16-.52zm-33.4 18.7l20.24-9.47m-19.73-10.5l19.73 10.5m-20-.5l20 .5" fill="#fff"/><path d="M1698.56-51.83l.37-2.35 1.5-2.87 2.26-2.27 2.87-1.5 3.3-.53 3.32.54 2.87 1.48 2.27 2.27 1.5 2.87.52 3.3-.53 3.33-1.5 2.88-2.26 2.26-2.88 1.48-3.32.54-3.3-.54-2.9-1.5-2.26-2.25-1.5-2.88-.45-2.86-19.63 9.2-.4-.87 18.42-8.63-17.98-.46.02-.95 17.98.45-17.96-9.56.45-.85zm7.3-8.07l-2.6 1.35-2.06 2.06-1.35 2.63-.5 3 .5 3.02 1.35 2.6 2.06 2.07 2.6 1.35 3.02.48 3-.48 2.62-1.35 2.06-2.06 1.35-2.6.5-3.02-.5-3.02-1.34-2.6-2.06-2.07-2.6-1.35-3.02-.48z" stroke="#3a414a" stroke-width=".05" fill="#3a414a"/><use xlink:href="#S" transform="matrix(1,0,0,1,1680.0711805555559,618.8510650749065) translate(0 17.22222222222222)"/><path d="M1178.53-128.44h-135.86v-.95h135.86zm122.14-45.07h-14l-.87.06-.84.2-.8.33-.74.44-.66.56-.56.66-.46.74-.33.8-.2.85-.06.88v33.08l-.08 1-.23 1-.4.93-.52.87-.65.77-.78.66-.86.53-.93.4-1 .23-1 .06h-64.8v-.95h64.78l.88-.06.84-.2.8-.33.74-.44.67-.56.57-.66.45-.74.32-.8.2-.85.07-.88V-168l.07-1 .24-1 .4-.93.53-.87.66-.77.76-.66.87-.53.93-.4 1-.23 1-.06h14z" stroke="#3a414a" stroke-width=".05" fill="#3a414a"/><path d="M1033.14-129.4h9.05v-9.5h.94v20h-.95v-9.54h-9.06v9.53h-.95v-9.54h-9.53v-.95h9.52v-9.5h.94zM1320.65-183.56l-18.2 9.1h18v.95h-18l18.2 9.1-.42.84-19.3-9.66v9.23h-.96v-20h.95v9.24l19.3-9.66z" stroke="#3a414a" stroke-width=".05" fill="#3a414a"/><use xlink:href="#T" transform="matrix(1,0,0,1,1178.5332764161783,-139.66620309773123) translate(0 17.22222222222222)"/><path d="M610.25 611.1l.66.77.54.86.4.94.22 1 .08.98v118.38h-.95V615.7l-.08-.9-.2-.83-.33-.8-.47-.74-.5-.6v-1.26zm-249.58-.95v-.95h146.4v.95z" stroke="#3a414a" stroke-width=".05" fill="#3a414a"/><path d="M351.14 609.2h9.05v-9.53h.94v20h-.95v-9.52h-9.06v9.52h-.95v-9.52h-9.53v-.95h9.52v-9.53h.94z" stroke="#3a414a" stroke-width=".05" fill="#3a414a"/><path d="M624.6 724.54l2.75 1.42 2.16 2.17 1.43 2.74.5 3.16-.5 3.16-1.42 2.74-2.15 2.16-2.75 1.42-3.16.5-3.16-.5-2.74-1.42-2.17-2.16-1.42-2.75-.5-3.17.5-3.16 1.42-2.74 2.17-2.17 2.74-1.42 3.16-.5zm26.84 19.5l-20-10m20-10l-20 10m0 0h20" fill="#fff"/><path d="M624.75 724.1l2.88 1.48 2.27 2.26 1.5 2.88.4 2.6 19.43-9.7.42.84-18.2 9.1h18v.95h-18l18.2 9.1-.42.86-19.42-9.7-.4 2.6-1.5 2.86-2.27 2.27-2.88 1.48-3.3.53-3.32-.52-2.88-1.5-2.27-2.26-1.48-2.88-.54-3.3.54-3.32 1.48-2.88 2.27-2.26 2.88-1.5 3.3-.53zm-6.32.9l-2.6 1.35-2.07 2.06-1.35 2.62-.48 3 .5 3.02 1.34 2.62 2.06 2.06 2.6 1.35 3.02.48 3-.48 2.63-1.35 2.06-2.06 1.35-2.62.48-3-.48-3.02-1.35-2.6-2.06-2.07-2.62-1.35-3-.5z" stroke="#3a414a" stroke-width=".05" fill="#3a414a"/><use xlink:href="#U" transform="matrix(1,0,0,1,507.0583157771538,598.9170763108615) translate(0 17.22222222222222)"/><path d="M-96.33-406.5a6 6 0 0 1 6-6h1842a6 6 0 0 1 6 6v1333a6 6 0 0 1-6 6h-1842a6 6 0 0 1-6-6z" stroke="#edf5ff" stroke-width="2" fill="#f2f3f5"/><path d="M-96.33-454.75a6 6 0 0 1 6-6H53.1a6 6 0 0 1 6 6v24.25a6 6 0 0 1-6 6H-90.34a6 6 0 0 1-6-6z" fill="#edf5ff"/><use xlink:href="#a" transform="matrix(1,0,0,1,-88.33333333333314,-452.75474609375) translate(0 16.589501953125)"/><use xlink:href="#b" transform="matrix(1,0,0,1,-88.33333333333314,-452.75474609375) translate(106.50498046875 16.589501953125)"/><path d="M-16.33-265a12 12 0 0 1 12-12h332a12 12 0 0 1 12 12v238a12 12 0 0 1-12 12h-332a12 12 0 0 1-12-12z" fill="#edf5ff"/><path d="M-16.33-237h356v38h-356z" fill="#edf5ff"/><path d="M-16.33-200h356v38h-356z" fill="#edf5ff"/><path d="M-16.33-163h356v38h-356z" fill="#edf5ff"/><path d="M-16.33-126h356v38h-356z" fill="#edf5ff"/><path d="M-16.33-89h356v38h-356z" fill="#edf5ff"/><path d="M-16.33-52h356v25a12 12 0 0 1-12 12h-332a12 12 0 0 1-12-12z" fill="#edf5ff"/><path d="M-15.33-237h354-354zM-16.33-265a12 12 0 0 1 12-12h332a12 12 0 0 1 12 12v238a12 12 0 0 1-12 12h-332a12 12 0 0 1-12-12zM161.67-236v220z" stroke="#6db1ff" stroke-width="2" fill="none"/><use xlink:href="#c" transform="matrix(1,0,0,1,-6.333333333333144,-277) translate(138.77365451388889 28.08376736111111)"/><use xlink:href="#d" transform="matrix(1,0,0,1,-11.333333333333144,-234.5) translate(0 24.08376736111111)"/><use xlink:href="#e" transform="matrix(1,0,0,1,-11.333333333333144,-234.5) translate(25.23871527777778 24.08376736111111)"/><use xlink:href="#f" transform="matrix(1,0,0,1,166.66666666666686,-234.5) translate(0 24.08376736111111)"/><use xlink:href="#g" transform="matrix(1,0,0,1,-11.333333333333144,-197.5) translate(0 24.08376736111111)"/><use xlink:href="#h" transform="matrix(1,0,0,1,166.66666666666686,-197.5) translate(0 24.08376736111111)"/><use xlink:href="#i" transform="matrix(1,0,0,1,-11.333333333333144,-160.5) translate(0 24.08376736111111)"/><use xlink:href="#h" transform="matrix(1,0,0,1,166.66666666666686,-160.5) translate(0 24.08376736111111)"/><use xlink:href="#j" transform="matrix(1,0,0,1,-11.333333333333144,-123.5) translate(0 24.08376736111111)"/><use xlink:href="#h" transform="matrix(1,0,0,1,166.66666666666686,-123.5) translate(0 24.08376736111111)"/><use xlink:href="#k" transform="matrix(1,0,0,1,-11.333333333333144,-86.5) translate(0 24.08376736111111)"/><use xlink:href="#h" transform="matrix(1,0,0,1,166.66666666666686,-86.5) translate(0 24.08376736111111)"/><use xlink:href="#l" transform="matrix(1,0,0,1,-11.333333333333144,-49.5) translate(0 24.08376736111111)"/><use xlink:href="#m" transform="matrix(1,0,0,1,166.66666666666686,-49.5) translate(0 24.08376736111111)"/><path d="M652.67 378.67a12 12 0 0 1 12-12h332a12 12 0 0 1 12 12v460a12 12 0 0 1-12 12h-332a12 12 0 0 1-12-12z" fill="#edf5ff"/><path d="M652.67 406.67h356v38h-356z" fill="#edf5ff"/><path d="M652.67 443.67h356v38h-356z" fill="#edf5ff"/><path d="M652.67 480.67h356v38h-356z" fill="#edf5ff"/><path d="M652.67 517.67h356v38h-356z" fill="#edf5ff"/><path d="M652.67 554.67h356v38h-356z" fill="#edf5ff"/><path d="M652.67 591.67h356v38h-356z" fill="#edf5ff"/><path d="M652.67 628.67h356v38h-356z" fill="#edf5ff"/><path d="M652.67 665.67h356v38h-356z" fill="#edf5ff"/><path d="M652.67 702.67h356v38h-356z" fill="#edf5ff"/><path d="M652.67 739.67h356v38h-356z" fill="#edf5ff"/><path d="M652.67 776.67h356v38h-356z" fill="#edf5ff"/><path d="M652.67 813.67h356v25a12 12 0 0 1-12 12h-332a12 12 0 0 1-12-12z" fill="#edf5ff"/><path d="M653.67 406.67h354-354zM652.67 378.67a12 12 0 0 1 12-12h332a12 12 0 0 1 12 12v460a12 12 0 0 1-12 12h-332a12 12 0 0 1-12-12zM830.67 407.67v442z" stroke="#6db1ff" stroke-width="2" fill="none"/><use xlink:href="#n" transform="matrix(1,0,0,1,662.6666666666669,366.66666666666674) translate(113.68142361111111 28.08376736111111)"/><use xlink:href="#d" transform="matrix(1,0,0,1,657.6666666666669,409.16666666666674) translate(0 24.08376736111111)"/><use xlink:href="#e" transform="matrix(1,0,0,1,657.6666666666669,409.16666666666674) translate(25.23871527777778 24.08376736111111)"/><use xlink:href="#f" transform="matrix(1,0,0,1,835.6666666666669,409.16666666666674) translate(0 24.08376736111111)"/><use xlink:href="#o" transform="matrix(1,0,0,1,657.6666666666669,446.16666666666674) translate(0 24.08376736111111)"/><use xlink:href="#p" transform="matrix(1,0,0,1,657.6666666666669,446.16666666666674) translate(82.31336805555554 24.08376736111111)"/><use xlink:href="#f" transform="matrix(1,0,0,1,835.6666666666669,446.16666666666674) translate(0 24.08376736111111)"/><use xlink:href="#q" transform="matrix(1,0,0,1,657.6666666666669,483.16666666666674) translate(0 24.08376736111111)"/><use xlink:href="#p" transform="matrix(1,0,0,1,657.6666666666669,483.16666666666674) translate(127.91883680555556 24.08376736111111)"/><use xlink:href="#f" transform="matrix(1,0,0,1,835.6666666666669,483.16666666666674) translate(0 24.08376736111111)"/><use xlink:href="#r" transform="matrix(1,0,0,1,657.6666666666669,520.1666666666667) translate(0 24.08376736111111)"/><use xlink:href="#h" transform="matrix(1,0,0,1,835.6666666666669,520.1666666666667) translate(0 24.08376736111111)"/><use xlink:href="#s" transform="matrix(1,0,0,1,657.6666666666669,557.1666666666667) translate(0 24.08376736111111)"/><use xlink:href="#t" transform="matrix(1,0,0,1,835.6666666666669,557.1666666666667) translate(0 24.08376736111111)"/><use xlink:href="#u" transform="matrix(1,0,0,1,657.6666666666669,594.1666666666667) translate(0 24.08376736111111)"/><use xlink:href="#v" transform="matrix(1,0,0,1,835.6666666666669,594.1666666666667) translate(0 24.08376736111111)"/><use xlink:href="#w" transform="matrix(1,0,0,1,657.6666666666669,631.1666666666667) translate(0 24.08376736111111)"/><use xlink:href="#f" transform="matrix(1,0,0,1,835.6666666666669,631.1666666666667) translate(0 24.08376736111111)"/><use xlink:href="#x" transform="matrix(1,0,0,1,657.6666666666669,668.1666666666667) translate(0 24.08376736111111)"/><use xlink:href="#h" transform="matrix(1,0,0,1,835.6666666666669,668.1666666666667) translate(0 24.08376736111111)"/><use xlink:href="#y" transform="matrix(1,0,0,1,657.6666666666669,705.1666666666667) translate(0 24.08376736111111)"/><use xlink:href="#h" transform="matrix(1,0,0,1,835.6666666666669,705.1666666666667) translate(0 24.08376736111111)"/><use xlink:href="#z" transform="matrix(1,0,0,1,657.6666666666669,742.1666666666667) translate(0 24.08376736111111)"/><use xlink:href="#A" transform="matrix(1,0,0,1,835.6666666666669,742.1666666666667) translate(0 24.08376736111111)"/><use xlink:href="#l" transform="matrix(1,0,0,1,657.6666666666669,779.1666666666667) translate(0 24.08376736111111)"/><use xlink:href="#m" transform="matrix(1,0,0,1,835.6666666666669,779.1666666666667) translate(0 24.08376736111111)"/><use xlink:href="#B" transform="matrix(1,0,0,1,657.6666666666669,816.1666666666667) translate(0 24.08376736111111)"/><use xlink:href="#m" transform="matrix(1,0,0,1,835.6666666666669,816.1666666666667) translate(0 24.08376736111111)"/><path d="M639.67-320.5a12 12 0 0 1 12-12h358a12 12 0 0 1 12 12v349a12 12 0 0 1-12 12h-358a12 12 0 0 1-12-12z" fill="#edf5ff"/><path d="M639.67-292.5h382v38h-382z" fill="#edf5ff"/><path d="M639.67-255.5h382v38h-382z" fill="#edf5ff"/><path d="M639.67-218.5h382v38h-382z" fill="#edf5ff"/><path d="M639.67-181.5h382v38h-382z" fill="#edf5ff"/><path d="M639.67-144.5h382v38h-382z" fill="#edf5ff"/><path d="M639.67-107.5h382v38h-382z" fill="#edf5ff"/><path d="M639.67-70.5h382v38h-382z" fill="#edf5ff"/><path d="M639.67-33.5h382v38h-382z" fill="#edf5ff"/><path d="M639.67 3.5h382v25a12 12 0 0 1-12 12h-358a12 12 0 0 1-12-12z" fill="#edf5ff"/><path d="M640.67-292.5h380-380zM639.67-320.5a12 12 0 0 1 12-12h358a12 12 0 0 1 12 12v349a12 12 0 0 1-12 12h-358a12 12 0 0 1-12-12zM830.67-291.5v331z" stroke="#6db1ff" stroke-width="2" fill="none"/><use xlink:href="#C" transform="matrix(1,0,0,1,649.6666666666669,-332.5) translate(143.50542534722223 28.08376736111111)"/><use xlink:href="#d" transform="matrix(1,0,0,1,644.6666666666669,-290) translate(0 24.08376736111111)"/><use xlink:href="#e" transform="matrix(1,0,0,1,644.6666666666669,-290) translate(25.23871527777778 24.08376736111111)"/><use xlink:href="#f" transform="matrix(1,0,0,1,835.6666666666669,-290) translate(0 24.08376736111111)"/><use xlink:href="#o" transform="matrix(1,0,0,1,644.6666666666669,-253) translate(0 24.08376736111111)"/><use xlink:href="#p" transform="matrix(1,0,0,1,644.6666666666669,-253) translate(82.31336805555554 24.08376736111111)"/><use xlink:href="#f" transform="matrix(1,0,0,1,835.6666666666669,-253) translate(0 24.08376736111111)"/><use xlink:href="#D" transform="matrix(1,0,0,1,644.6666666666669,-216) translate(0 24.08376736111111)"/><use xlink:href="#h" transform="matrix(1,0,0,1,835.6666666666669,-216) translate(0 24.08376736111111)"/><use xlink:href="#E" transform="matrix(1,0,0,1,644.6666666666669,-179) translate(0 24.08376736111111)"/><use xlink:href="#v" transform="matrix(1,0,0,1,835.6666666666669,-179) translate(0 24.08376736111111)"/><use xlink:href="#F" transform="matrix(1,0,0,1,644.6666666666669,-142) translate(0 24.08376736111111)"/><use xlink:href="#h" transform="matrix(1,0,0,1,835.6666666666669,-142) translate(0 24.08376736111111)"/><use xlink:href="#G" transform="matrix(1,0,0,1,644.6666666666669,-105) translate(0 24.08376736111111)"/><use xlink:href="#t" transform="matrix(1,0,0,1,835.6666666666669,-105) translate(0 24.08376736111111)"/><use xlink:href="#H" transform="matrix(1,0,0,1,644.6666666666669,-68) translate(0 24.08376736111111)"/><use xlink:href="#t" transform="matrix(1,0,0,1,835.6666666666669,-68) translate(0 24.08376736111111)"/><use xlink:href="#I" transform="matrix(1,0,0,1,644.6666666666669,-31) translate(0 24.08376736111111)"/><use xlink:href="#m" transform="matrix(1,0,0,1,835.6666666666669,-31) translate(0 24.08376736111111)"/><use xlink:href="#B" transform="matrix(1,0,0,1,644.6666666666669,6) translate(0 24.08376736111111)"/><use xlink:href="#m" transform="matrix(1,0,0,1,835.6666666666669,6) translate(0 24.08376736111111)"/><path d="M1321.67-283.5a12 12 0 0 1 12-12h332a12 12 0 0 1 12 12v275a12 12 0 0 1-12 12h-332a12 12 0 0 1-12-12z" fill="#edf5ff"/><path d="M1321.67-255.5h356v38h-356z" fill="#edf5ff"/><path d="M1321.67-218.5h356v38h-356z" fill="#edf5ff"/><path d="M1321.67-181.5h356v38h-356z" fill="#edf5ff"/><path d="M1321.67-144.5h356v38h-356z" fill="#edf5ff"/><path d="M1321.67-107.5h356v38h-356z" fill="#edf5ff"/><path d="M1321.67-70.5h356v38h-356z" fill="#edf5ff"/><path d="M1321.67-33.5h356v25a12 12 0 0 1-12 12h-332a12 12 0 0 1-12-12z" fill="#edf5ff"/><path d="M1322.67-255.5h354-354zM1321.67-283.5a12 12 0 0 1 12-12h332a12 12 0 0 1 12 12v275a12 12 0 0 1-12 12h-332a12 12 0 0 1-12-12zM1499.67-254.5v257z" stroke="#6db1ff" stroke-width="2" fill="none"/><use xlink:href="#J" transform="matrix(1,0,0,1,1331.666666666667,-295.5) translate(98.19205729166666 28.08376736111111)"/><use xlink:href="#d" transform="matrix(1,0,0,1,1326.666666666667,-253) translate(0 24.08376736111111)"/><use xlink:href="#e" transform="matrix(1,0,0,1,1326.666666666667,-253) translate(25.23871527777778 24.08376736111111)"/><use xlink:href="#f" transform="matrix(1,0,0,1,1504.666666666667,-253) translate(0 24.08376736111111)"/><use xlink:href="#K" transform="matrix(1,0,0,1,1326.666666666667,-216) translate(0 24.08376736111111)"/><use xlink:href="#p" transform="matrix(1,0,0,1,1326.666666666667,-216) translate(92.37196180555554 24.08376736111111)"/><use xlink:href="#f" transform="matrix(1,0,0,1,1504.666666666667,-216) translate(0 24.08376736111111)"/><use xlink:href="#L" transform="matrix(1,0,0,1,1326.666666666667,-179) translate(0 24.08376736111111)"/><use xlink:href="#p" transform="matrix(1,0,0,1,1326.666666666667,-179) translate(117.76258680555556 24.08376736111111)"/><use xlink:href="#f" transform="matrix(1,0,0,1,1504.666666666667,-179) translate(0 24.08376736111111)"/><use xlink:href="#M" transform="matrix(1,0,0,1,1326.666666666667,-142) translate(0 24.08376736111111)"/><use xlink:href="#f" transform="matrix(1,0,0,1,1504.666666666667,-142) translate(0 24.08376736111111)"/><use xlink:href="#N" transform="matrix(1,0,0,1,1326.666666666667,-105) translate(0 24.08376736111111)"/><use xlink:href="#v" transform="matrix(1,0,0,1,1504.666666666667,-105) translate(0 24.08376736111111)"/><use xlink:href="#O" transform="matrix(1,0,0,1,1326.666666666667,-68) translate(0 24.08376736111111)"/><use xlink:href="#v" transform="matrix(1,0,0,1,1504.666666666667,-68) translate(0 24.08376736111111)"/><use xlink:href="#l" transform="matrix(1,0,0,1,1326.666666666667,-31) translate(0 24.08376736111111)"/><use xlink:href="#m" transform="matrix(1,0,0,1,1504.666666666667,-31) translate(0 24.08376736111111)"/><path d="M-16.33 526.67a12 12 0 0 1 12-12h332a12 12 0 0 1 12 12v164a12 12 0 0 1-12 12h-332a12 12 0 0 1-12-12z" fill="#edf5ff"/><path d="M-16.33 554.67h356v38h-356z" fill="#edf5ff"/><path d="M-16.33 591.67h356v38h-356z" fill="#edf5ff"/><path d="M-16.33 628.67h356v38h-356z" fill="#edf5ff"/><path d="M-16.33 665.67h356v25a12 12 0 0 1-12 12h-332a12 12 0 0 1-12-12z" fill="#edf5ff"/><path d="M-15.33 554.67h354-354zM-16.33 526.67a12 12 0 0 1 12-12h332a12 12 0 0 1 12 12v164a12 12 0 0 1-12 12h-332a12 12 0 0 1-12-12zM161.67 555.67v146z" stroke="#6db1ff" stroke-width="2" fill="none"/><use xlink:href="#P" transform="matrix(1,0,0,1,-6.333333333333144,514.6666666666667) translate(108.31575520833334 28.08376736111111)"/><use xlink:href="#d" transform="matrix(1,0,0,1,-11.333333333333144,557.1666666666667) translate(0 24.08376736111111)"/><use xlink:href="#e" transform="matrix(1,0,0,1,-11.333333333333144,557.1666666666667) translate(25.23871527777778 24.08376736111111)"/><use xlink:href="#f" transform="matrix(1,0,0,1,166.66666666666686,557.1666666666667) translate(0 24.08376736111111)"/><use xlink:href="#r" transform="matrix(1,0,0,1,-11.333333333333144,594.1666666666667) translate(0 24.08376736111111)"/><use xlink:href="#h" transform="matrix(1,0,0,1,166.66666666666686,594.1666666666667) translate(0 24.08376736111111)"/><use xlink:href="#s" transform="matrix(1,0,0,1,-11.333333333333144,631.1666666666667) translate(0 24.08376736111111)"/><use xlink:href="#h" transform="matrix(1,0,0,1,166.66666666666686,631.1666666666667) translate(0 24.08376736111111)"/><use xlink:href="#l" transform="matrix(1,0,0,1,-11.333333333333144,668.1666666666667) translate(0 24.08376736111111)"/><use xlink:href="#m" transform="matrix(1,0,0,1,166.66666666666686,668.1666666666667) translate(0 24.08376736111111)"/><path d="M490.14 543.65l.07.88.2.85.35.8.45.74.56.66.66.56.74.45.8.32.84.2.88.08h116v.94H495.64l-1-.07-.98-.24-.94-.4-.87-.52-.77-.65-.67-.77-.53-.87-.4-.93-.23-1-.08-.98V241.7h.94zm-5.46-644.8l1 .24.93.38.87.53.78.67.66.78.54.86.4.95.22 1 .08.98V220.2h-.95V-94.72l-.08-.88-.2-.85-.33-.8-.47-.74-.56-.65-.66-.57-.73-.45-.8-.33-.84-.2-.88-.07H360.67v-.95h123z" stroke="#3a414a" stroke-width=".05" fill="#3a414a"/><path d="M351.14-101.22h9.05v-9.53h.94v20h-.95v-9.52h-9.06v9.52h-.95v-9.52h-9.53v-.95h9.52v-9.53h.94z" stroke="#3a414a" stroke-width=".05" fill="#3a414a"/><path d="M624.6 540.18l2.75 1.42 2.16 2.16 1.43 2.75.5 3.17-.5 3.16-1.42 2.75-2.15 2.16-2.75 1.42-3.16.5-3.16-.5-2.74-1.42-2.17-2.16-1.42-2.75-.5-3.16.5-3.16 1.42-2.74 2.17-2.16 2.74-1.42 3.16-.5zm26.84 19.5l-20-10m20-10l-20 10m0 0h20" fill="#fff"/><path d="M624.75 539.72l2.88 1.5 2.27 2.26 1.5 2.88.4 2.6 19.43-9.7.42.84-18.2 9.1h18v.94h-18l18.2 9.1-.42.86-19.42-9.72-.4 2.6-1.5 2.88-2.27 2.27-2.88 1.5-3.3.52-3.32-.53-2.88-1.5-2.27-2.26-1.48-2.88-.54-3.3.54-3.32 1.48-2.88 2.27-2.27 2.88-1.48 3.3-.53zm-6.32.92l-2.6 1.35-2.07 2.05-1.35 2.6-.48 3.02.5 3 1.34 2.62 2.06 2.05 2.6 1.35 3.02.5 3-.5 2.63-1.35 2.06-2.06 1.35-2.62.48-3-.48-3.02-1.35-2.6-2.06-2.07-2.62-1.36-3-.5z" stroke="#3a414a" stroke-width=".05" fill="#3a414a"/><g><use xlink:href="#Q" transform="matrix(1,0,0,1,457.04947916666686,220.2064021535581) translate(0 17.22222222222222)"/></g><path d="M593.68-189.64l1 .24.93.4.87.52.78.66.66.77.54.87.4.94.22 1 .08.98v54.35h-.95v-54.32l-.08-.9-.2-.83-.33-.8-.47-.74-.56-.65-.66-.56-.73-.46-.8-.34-.84-.2-.88-.07H548.5v-.95h44.18zm-233 .87v-.95h130.48v.95z" stroke="#3a414a" stroke-width=".05" fill="#3a414a"/><path d="M351.14-189.72h9.05v-9.52h.94v20h-.95v-9.53h-9.06v9.53h-.95v-9.53h-9.53v-.95h9.52v-9.52h.94z" stroke="#3a414a" stroke-width=".05" fill="#3a414a"/><path d="M611.6-138.4l2.75 1.42 2.16 2.16 1.43 2.75.5 3.16-.5 3.15-1.42 2.75-2.15 2.16-2.75 1.42-3.16.5-3.16-.5-2.74-1.42-2.17-2.16-1.42-2.75-.5-3.16.5-3.17 1.42-2.75 2.17-2.16 2.74-1.42 3.16-.5zm26.84 19.5l-20-10m20-10l-20 10m0 0h20" fill="#fff"/><path d="M611.75-138.86l2.88 1.5 2.27 2.26 1.5 2.88.4 2.6 19.43-9.72.42.85-18.2 9.1h18v.96h-18l18.2 9.1-.42.85-19.42-9.7-.4 2.6-1.5 2.88-2.27 2.27-2.88 1.5-3.3.52-3.32-.53-2.88-1.5-2.27-2.26-1.48-2.88-.54-3.3.54-3.32 1.48-2.88 2.27-2.27 2.88-1.5 3.3-.52zm-6.32.92l-2.6 1.35-2.07 2.07-1.35 2.6-.48 3.02.5 3 1.34 2.6 2.06 2.07 2.6 1.35 3.02.5 3-.5 2.63-1.35 2.06-2.06 1.35-2.6.48-3-.48-3.02-1.35-2.6-2.06-2.07-2.62-1.34-3-.5z" stroke="#3a414a" stroke-width=".05" fill="#3a414a"/><g><use xlink:href="#R" transform="matrix(1,0,0,1,491.155740523544,-199.99678136704122) translate(0 17.22222222222222)"/></g><path d="M1716.25 640.43l-.78.66-.86.52-.93.4-1 .23-1 .08h-682v-.95h681.98l.88-.07.84-.2.8-.33.68-.4h1.46zm1.9-21.58h-.96v-669.5h.94z" stroke="#3a414a" stroke-width=".05" fill="#3a414a"/><path d="M1020.14 641.38h9.05v-9.53h.94v20h-.95v-9.52h-9.06v9.52h-.95v-9.52h-9.53v-.95h9.52v-9.53h.94z" stroke="#3a414a" stroke-width=".05" fill="#3a414a"/><path d="M1712.04-60.35l2.75 1.4 2.15 2.18 1.42 2.74.5 3.16-.5 3.17-1.42 2.74-2.16 2.17-2.76 1.42-3.16.52-3.16-.52-2.75-1.4-2.16-2.18-1.4-2.74-.52-3.16.5-3.17 1.43-2.74 2.17-2.16 2.75-1.42 3.16-.52zm-33.4 18.7l20.24-9.47m-19.73-10.5l19.73 10.5m-20-.5l20 .5" fill="#fff"/><path d="M1698.56-51.83l.37-2.35 1.5-2.87 2.26-2.27 2.87-1.5 3.3-.53 3.32.54 2.87 1.48 2.27 2.27 1.5 2.87.52 3.3-.53 3.33-1.5 2.88-2.26 2.26-2.88 1.48-3.32.54-3.3-.54-2.9-1.5-2.26-2.25-1.5-2.88-.45-2.86-19.63 9.2-.4-.87 18.42-8.63-17.98-.46.02-.95 17.98.45-17.96-9.56.45-.85zm7.3-8.07l-2.6 1.35-2.06 2.06-1.35 2.63-.5 3 .5 3.02 1.35 2.6 2.06 2.07 2.6 1.35 3.02.48 3-.48 2.62-1.35 2.06-2.06 1.35-2.6.5-3.02-.5-3.02-1.34-2.6-2.06-2.07-2.6-1.35-3.02-.48z" stroke="#3a414a" stroke-width=".05" fill="#3a414a"/><g><use xlink:href="#S" transform="matrix(1,0,0,1,1680.0711805555559,618.8510650749065) translate(0 17.22222222222222)"/></g><path d="M1178.53-128.44h-135.86v-.95h135.86zm122.14-45.07h-14l-.87.06-.84.2-.8.33-.74.44-.66.56-.56.66-.46.74-.33.8-.2.85-.06.88v33.08l-.08 1-.23 1-.4.93-.52.87-.65.77-.78.66-.86.53-.93.4-1 .23-1 .06h-64.8v-.95h64.78l.88-.06.84-.2.8-.33.74-.44.67-.56.57-.66.45-.74.32-.8.2-.85.07-.88V-168l.07-1 .24-1 .4-.93.53-.87.66-.77.76-.66.87-.53.93-.4 1-.23 1-.06h14z" stroke="#3a414a" stroke-width=".05" fill="#3a414a"/><path d="M1033.14-129.4h9.05v-9.5h.94v20h-.95v-9.54h-9.06v9.53h-.95v-9.54h-9.53v-.95h9.52v-9.5h.94zM1320.65-183.56l-18.2 9.1h18v.95h-18l18.2 9.1-.42.84-19.3-9.66v9.23h-.96v-20h.95v9.24l19.3-9.66z" stroke="#3a414a" stroke-width=".05" fill="#3a414a"/><g><use xlink:href="#T" transform="matrix(1,0,0,1,1178.5332764161783,-139.66620309773123) translate(0 17.22222222222222)"/></g><path d="M610.25 611.1l.66.77.54.86.4.94.22 1 .08.98v118.38h-.95V615.7l-.08-.9-.2-.83-.33-.8-.47-.74-.5-.6v-1.26zm-249.58-.95v-.95h146.4v.95z" stroke="#3a414a" stroke-width=".05" fill="#3a414a"/><path d="M351.14 609.2h9.05v-9.53h.94v20h-.95v-9.52h-9.06v9.52h-.95v-9.52h-9.53v-.95h9.52v-9.53h.94z" stroke="#3a414a" stroke-width=".05" fill="#3a414a"/><path d="M624.6 724.54l2.75 1.42 2.16 2.17 1.43 2.74.5 3.16-.5 3.16-1.42 2.74-2.15 2.16-2.75 1.42-3.16.5-3.16-.5-2.74-1.42-2.17-2.16-1.42-2.75-.5-3.17.5-3.16 1.42-2.74 2.17-2.17 2.74-1.42 3.16-.5zm26.84 19.5l-20-10m20-10l-20 10m0 0h20" fill="#fff"/><path d="M624.75 724.1l2.88 1.48 2.27 2.26 1.5 2.88.4 2.6 19.43-9.7.42.84-18.2 9.1h18v.95h-18l18.2 9.1-.42.86-19.42-9.7-.4 2.6-1.5 2.86-2.27 2.27-2.88 1.48-3.3.53-3.32-.52-2.88-1.5-2.27-2.26-1.48-2.88-.54-3.3.54-3.32 1.48-2.88 2.27-2.26 2.88-1.5 3.3-.53zm-6.32.9l-2.6 1.35-2.07 2.06-1.35 2.62-.48 3 .5 3.02 1.34 2.62 2.06 2.06 2.6 1.35 3.02.48 3-.48 2.63-1.35 2.06-2.06 1.35-2.62.48-3-.48-3.02-1.35-2.6-2.06-2.07-2.62-1.35-3-.5z" stroke="#3a414a" stroke-width=".05" fill="#3a414a"/><g><use xlink:href="#U" transform="matrix(1,0,0,1,507.0583157771538,598.9170763108615) translate(0 17.22222222222222)"/></g><defs><path d="M180 0v-1490h908v168H370v486h669v168H370v500h727V0H180" id="V"/><path d="M798-719v166H144v-166h654" id="W"/><path d="M613 24c-304 0-509-231-509-576 0-350 205-580 509-580 216 0 392 114 453 309l-173 49c-33-115-133-197-280-197-223 0-326 196-326 419 0 220 103 415 326 415 150 0 252-85 285-206l172 49C1010-95 832 24 613 24" id="X"/><path d="M613 24c-304 0-509-231-509-576 0-350 205-580 509-580 305 0 511 230 511 580 0 345-206 576-511 576zm0-161c226 0 329-195 329-415 0-222-103-419-329-419-223 0-326 196-326 419 0 220 103 415 326 415" id="Y"/><path d="M158 0v-1118h175l1 205c55-151 181-225 313-225 147 0 245 90 285 228 53-141 190-228 352-228 194 0 352 125 352 384V0h-181v-749c0-161-105-225-225-225-151 0-243 103-243 244V0H807v-767c0-124-93-207-219-207-131 0-250 92-250 270V0H158" id="Z"/><path d="M628 24c-324 0-524-230-524-574 0-343 198-582 503-582 237 0 487 146 487 559v75H286c9 234 145 362 343 362 132 0 231-58 273-172l174 48C1024-91 857 24 628 24zM287-650h624c-17-190-120-322-304-322-192 0-309 151-320 322" id="aa"/><path d="M158 0v-1118h174v172h12c41-113 157-188 290-188 26 0 70 2 91 3v181c-11-2-60-10-108-10-161 0-279 109-279 260V0H158" id="ab"/><g id="a"><use transform="matrix(0.008173828125000001,0,0,0.008173828125000001,0,0)" xlink:href="#V"/><use transform="matrix(0.008173828125000001,0,0,0.008173828125000001,10.061982421875001,0)" xlink:href="#W"/><use transform="matrix(0.008173828125000001,0,0,0.008173828125000001,17.761728515625002,0)" xlink:href="#X"/><use transform="matrix(0.008173828125000001,0,0,0.008173828125000001,27.325107421875003,0)" xlink:href="#Y"/><use transform="matrix(0.008173828125000001,0,0,0.008173828125000001,37.362568359375004,0)" xlink:href="#Z"/><use transform="matrix(0.008173828125000001,0,0,0.008173828125000001,52.026416015625,0)" xlink:href="#Z"/><use transform="matrix(0.008173828125000001,0,0,0.008173828125000001,66.690263671875,0)" xlink:href="#aa"/><use transform="matrix(0.008173828125000001,0,0,0.008173828125000001,76.449814453125,0)" xlink:href="#ab"/><use transform="matrix(0.008173828125000001,0,0,0.008173828125000001,82.47392578125,0)" xlink:href="#X"/><use transform="matrix(0.008173828125000001,0,0,0.008173828125000001,92.03730468750001,0)" xlink:href="#aa"/></g><path d="M180 0v-1490h510c348 0 508 194 508 460 0 198-88 351-276 417L1256 0h-220L726-579c-117 2-238 0-356 1V0H180zm190-747h312c235 0 327-108 327-283 0-177-92-293-329-293H370v576" id="ac"/><path d="M645 0H180v-1490h484c435 0 692 280 692 742 0 466-257 748-711 748zM370-168h263c363 0 539-218 539-580 0-358-176-574-521-574H370v1154" id="ad"/><g id="b"><use transform="matrix(0.008173828125000001,0,0,0.008173828125000001,0,0)" xlink:href="#V"/><use transform="matrix(0.008173828125000001,0,0,0.008173828125000001,10.061982421875001,0)" xlink:href="#ac"/><use transform="matrix(0.008173828125000001,0,0,0.008173828125000001,20.835087890625005,0)" xlink:href="#ad"/></g><path d="M763 24c-353 0-583-224-583-531v-983h190v968c0 214 149 370 393 370 243 0 391-156 391-370v-968h190v983c0 307-230 531-581 531" id="ae"/><path d="M657 26c-323 0-524-166-541-416h195c15 169 171 246 346 246 202 0 356-106 356-265 5-203-294-238-475-293-239-73-380-191-380-389 0-252 224-419 512-419 294 0 499 171 508 396H992c-17-145-151-228-328-228-193 0-321 102-321 242 0 156 175 211 284 241l149 41c160 44 422 134 422 412 0 244-197 432-541 432" id="af"/><g id="c"><use transform="matrix(0.010850694444444444,0,0,0.010850694444444444,0,0)" xlink:href="#ae"/><use transform="matrix(0.010850694444444444,0,0,0.010850694444444444,16.536458333333332,0)" xlink:href="#af"/><use transform="matrix(0.010850694444444444,0,0,0.010850694444444444,30.794270833333332,0)" xlink:href="#V"/><use transform="matrix(0.010850694444444444,0,0,0.010850694444444444,44.15147569444444,0)" xlink:href="#ac"/></g><path d="M158 0v-1118h180V0H158zm91-1301c-68 0-125-53-125-119s57-119 125-119c69 0 126 53 126 119s-57 119-126 119" id="ag"/><path d="M577 24c-279 0-473-224-473-580 0-354 195-576 474-576 218 0 287 134 324 193h14v-551h180V0H922v-173h-20C865-111 790 24 577 24zm27-161c203 0 314-172 314-421 0-247-108-413-314-413-212 0-317 181-317 413 0 235 108 421 317 421" id="ah"/><g id="d"><use transform="matrix(0.010850694444444444,0,0,0.010850694444444444,0,0)" xlink:href="#ag"/><use transform="matrix(0.010850694444444444,0,0,0.010850694444444444,5.381944444444445,0)" xlink:href="#ah"/></g><path d="M180 0v-1490h510c348 0 508 209 508 474 0 266-160 477-507 477H370V0H180zm190-706h312c236 0 327-133 327-310 0-176-91-307-329-307H370v617" id="ai"/><path d="M180 0v-1490h190c0 262 1 526-3 784 217-279 467-523 702-784h249L716-845 1319 0h-225L585-716 370-489V0H180" id="aj"/><g id="e"><use transform="matrix(0.010850694444444444,0,0,0.010850694444444444,0,0)" xlink:href="#ai"/><use transform="matrix(0.010850694444444444,0,0,0.010850694444444444,14.192708333333332,0)" xlink:href="#aj"/></g><path d="M338-670V0H158v-1118h173l1 207c72-158 192-221 342-221 226 0 378 139 378 422V0H872v-695c0-172-96-275-252-275-161 0-282 109-282 300" id="ak"/><path d="M598-1118v154H368v674c0 100 37 144 132 144 23 0 62-6 92-12L629-6c-37 13-88 20-134 20-193 0-307-107-307-290v-688H20v-154h168v-266h180v266h230" id="al"/><g id="f"><use transform="matrix(0.010850694444444444,0,0,0.010850694444444444,0,0)" xlink:href="#ag"/><use transform="matrix(0.010850694444444444,0,0,0.010850694444444444,5.381944444444445,0)" xlink:href="#ak"/><use transform="matrix(0.010850694444444444,0,0,0.010850694444444444,18.51128472222222,0)" xlink:href="#al"/></g><path d="M537 14c-226 0-379-139-379-422v-710h180v695c0 172 97 275 253 275 160 0 281-109 281-300v-670h181V0H879v-209C806-46 684 14 537 14" id="am"/><path d="M538 24C308 24 148-78 108-271l171-41c32 123 123 178 257 178 156 0 256-77 256-169 0-77-54-128-164-154l-186-44c-203-48-300-148-300-305 0-192 176-326 414-326 230 0 351 112 402 269l-163 42c-31-80-94-158-238-158-133 0-233 69-233 162 0 83 57 129 188 160l169 40c203 48 298 149 298 302 0 196-179 339-441 339" id="an"/><path d="M471 26C259 26 90-98 90-318c0-256 228-303 435-329 202-27 287-16 287-108 0-139-79-219-234-219-161 0-248 86-283 164l-173-57c86-203 278-265 451-265 150 0 419 46 419 395V0H815v-152h-12C765-73 660 26 471 26zm31-159c199 0 310-134 310-271v-155c-30 35-226 55-295 64-131 17-246 59-246 186 0 116 97 176 231 176" id="ao"/><g id="g"><use transform="matrix(0.010850694444444444,0,0,0.010850694444444444,0,0)" xlink:href="#am"/><use transform="matrix(0.010850694444444444,0,0,0.010850694444444444,13.140190972222221,0)" xlink:href="#an"/><use transform="matrix(0.010850694444444444,0,0,0.010850694444444444,24.869791666666664,0)" xlink:href="#aa"/><use transform="matrix(0.010850694444444444,0,0,0.010850694444444444,37.82552083333333,0)" xlink:href="#ab"/><use transform="matrix(0.010850694444444444,0,0,0.010850694444444444,46.53862847222221,0)" xlink:href="#ak"/><use transform="matrix(0.010850694444444444,0,0,0.010850694444444444,59.667968749999986,0)" xlink:href="#ao"/><use transform="matrix(0.010850694444444444,0,0,0.010850694444444444,72.1462673611111,0)" xlink:href="#Z"/><use transform="matrix(0.010850694444444444,0,0,0.010850694444444444,91.61241319444441,0)" xlink:href="#aa"/></g><path d="M611 442c-248 0-391-105-460-228l146-94c47 65 117 165 314 165 178 0 307-82 307-266v-224h-17C863-141 792-18 576-18c-268 0-472-195-472-546 0-346 197-568 476-568 216 0 288 133 326 193h17v-179h175V29c0 289-215 413-487 413zm-5-620c203 0 314-146 314-390 0-237-108-403-314-403-213 0-319 180-319 403 0 230 109 390 319 390" id="ap"/><g id="h"><use transform="matrix(0.010850694444444444,0,0,0.010850694444444444,0,0)" xlink:href="#an"/><use transform="matrix(0.010850694444444444,0,0,0.010850694444444444,11.729600694444445,0)" xlink:href="#al"/><use transform="matrix(0.010850694444444444,0,0,0.010850694444444444,18.99956597222222,0)" xlink:href="#ab"/><use transform="matrix(0.010850694444444444,0,0,0.010850694444444444,27.712673611111104,0)" xlink:href="#ag"/><use transform="matrix(0.010850694444444444,0,0,0.010850694444444444,33.09461805555555,0)" xlink:href="#ak"/><use transform="matrix(0.010850694444444444,0,0,0.010850694444444444,46.22395833333333,0)" xlink:href="#ap"/></g><path d="M338-1490V0H158v-1490h180" id="aq"/><g id="i"><use transform="matrix(0.010850694444444444,0,0,0.010850694444444444,0,0)" xlink:href="#aa"/><use transform="matrix(0.010850694444444444,0,0,0.010850694444444444,12.955729166666666,0)" xlink:href="#Z"/><use transform="matrix(0.010850694444444444,0,0,0.010850694444444444,32.421875,0)" xlink:href="#ao"/><use transform="matrix(0.010850694444444444,0,0,0.010850694444444444,44.90017361111111,0)" xlink:href="#ag"/><use transform="matrix(0.010850694444444444,0,0,0.010850694444444444,50.28211805555556,0)" xlink:href="#aq"/></g><path d="M158 418v-1536h174v179h20c37-59 106-193 324-193 279 0 474 222 474 576 0 356-194 580-473 580-213 0-288-135-325-197h-14v591H158zm492-555c209 0 317-186 317-421 0-232-105-413-317-413-206 0-314 166-314 413 0 249 111 421 314 421" id="ar"/><path d="M409 0L70-1118h191c89 329 165 560 243 925 75-353 154-601 240-925h192c85 325 161 564 235 922 77-354 157-598 244-922h191L1267 0h-179c-86-307-176-590-250-913C763-588 675-308 588 0H409" id="as"/><g id="j"><use transform="matrix(0.010850694444444444,0,0,0.010850694444444444,0,0)" xlink:href="#ar"/><use transform="matrix(0.010850694444444444,0,0,0.010850694444444444,13.823784722222221,0)" xlink:href="#ao"/><use transform="matrix(0.010850694444444444,0,0,0.010850694444444444,26.302083333333332,0)" xlink:href="#an"/><use transform="matrix(0.010850694444444444,0,0,0.010850694444444444,38.03168402777778,0)" xlink:href="#an"/><use transform="matrix(0.010850694444444444,0,0,0.010850694444444444,49.76128472222222,0)" xlink:href="#as"/><use transform="matrix(0.010850694444444444,0,0,0.010850694444444444,67.54557291666667,0)" xlink:href="#Y"/><use transform="matrix(0.010850694444444444,0,0,0.010850694444444444,80.87022569444444,0)" xlink:href="#ab"/><use transform="matrix(0.010850694444444444,0,0,0.010850694444444444,88.8671875,0)" xlink:href="#ah"/></g><g id="k"><use transform="matrix(0.010850694444444444,0,0,0.010850694444444444,0,0)" xlink:href="#ab"/><use transform="matrix(0.010850694444444444,0,0,0.010850694444444444,7.996961805555555,0)" xlink:href="#Y"/><use transform="matrix(0.010850694444444444,0,0,0.010850694444444444,21.321614583333332,0)" xlink:href="#aq"/><use transform="matrix(0.010850694444444444,0,0,0.010850694444444444,26.70355902777778,0)" xlink:href="#aa"/></g><path d="M934 0v166H0V0h934" id="at"/><g id="l"><use transform="matrix(0.010850694444444444,0,0,0.010850694444444444,0,0)" xlink:href="#X"/><use transform="matrix(0.010850694444444444,0,0,0.010850694444444444,12.6953125,0)" xlink:href="#ab"/><use transform="matrix(0.010850694444444444,0,0,0.010850694444444444,20.692274305555557,0)" xlink:href="#aa"/><use transform="matrix(0.010850694444444444,0,0,0.010850694444444444,33.865017361111114,0)" xlink:href="#ao"/><use transform="matrix(0.010850694444444444,0,0,0.010850694444444444,46.34331597222223,0)" xlink:href="#al"/><use transform="matrix(0.010850694444444444,0,0,0.010850694444444444,53.39626736111112,0)" xlink:href="#aa"/><use transform="matrix(0.010850694444444444,0,0,0.010850694444444444,66.35199652777779,0)" xlink:href="#ah"/><use transform="matrix(0.010850694444444444,0,0,0.010850694444444444,79.95876736111111,0)" xlink:href="#at"/><use transform="matrix(0.010850694444444444,0,0,0.010850694444444444,90.09331597222221,0)" xlink:href="#ao"/><use transform="matrix(0.010850694444444444,0,0,0.010850694444444444,102.57161458333334,0)" xlink:href="#al"/></g><g id="m"><use transform="matrix(0.010850694444444444,0,0,0.010850694444444444,0,0)" xlink:href="#ah"/><use transform="matrix(0.010850694444444444,0,0,0.010850694444444444,13.606770833333332,0)" xlink:href="#ao"/><use transform="matrix(0.010850694444444444,0,0,0.010850694444444444,26.085069444444443,0)" xlink:href="#al"/><use transform="matrix(0.010850694444444444,0,0,0.010850694444444444,33.13802083333333,0)" xlink:href="#aa"/><use transform="matrix(0.010850694444444444,0,0,0.010850694444444444,46.093749999999986,0)" xlink:href="#al"/><use transform="matrix(0.010850694444444444,0,0,0.010850694444444444,53.36371527777778,0)" xlink:href="#ag"/><use transform="matrix(0.010850694444444444,0,0,0.010850694444444444,58.74565972222221,0)" xlink:href="#Z"/><use transform="matrix(0.010850694444444444,0,0,0.010850694444444444,78.21180555555554,0)" xlink:href="#aa"/></g><path d="M784 20c-382 0-662-292-662-764 0-473 280-766 662-766s660 293 660 766c0 472-278 764-660 764zm0-176c266 0 475-207 475-588 0-383-209-590-475-590-268 0-477 208-477 590 0 380 209 588 477 588" id="au"/><path d="M783 20c-382 0-661-292-661-764 0-473 279-766 661-766 302 0 548 182 601 489h-190c-42-204-217-313-411-313-268 0-476 208-476 590 0 381 209 588 476 588 195 0 369-110 411-313h190c-52 303-296 489-601 489" id="av"/><path d="M98-1322v-168h1126v168H757V0H567v-1322H98" id="aw"/><g id="n"><use transform="matrix(0.010850694444444444,0,0,0.010850694444444444,0,0)" xlink:href="#ai"/><use transform="matrix(0.010850694444444444,0,0,0.010850694444444444,14.192708333333332,0)" xlink:href="#ac"/><use transform="matrix(0.010850694444444444,0,0,0.010850694444444444,28.493923611111104,0)" xlink:href="#au"/><use transform="matrix(0.010850694444444444,0,0,0.010850694444444444,45.48611111111111,0)" xlink:href="#ad"/><use transform="matrix(0.010850694444444444,0,0,0.010850694444444444,61.5234375,0)" xlink:href="#ae"/><use transform="matrix(0.010850694444444444,0,0,0.010850694444444444,78.05989583333333,0)" xlink:href="#av"/><use transform="matrix(0.010850694444444444,0,0,0.010850694444444444,94.29253472222221,0)" xlink:href="#aw"/></g><g id="o"><use transform="matrix(0.010850694444444444,0,0,0.010850694444444444,0,0)" xlink:href="#am"/><use transform="matrix(0.010850694444444444,0,0,0.010850694444444444,13.140190972222221,0)" xlink:href="#an"/><use transform="matrix(0.010850694444444444,0,0,0.010850694444444444,24.869791666666664,0)" xlink:href="#aa"/><use transform="matrix(0.010850694444444444,0,0,0.010850694444444444,37.82552083333333,0)" xlink:href="#ab"/><use transform="matrix(0.010850694444444444,0,0,0.010850694444444444,46.191406249999986,0)" xlink:href="#at"/><use transform="matrix(0.010850694444444444,0,0,0.010850694444444444,57.07465277777778,0)" xlink:href="#ag"/><use transform="matrix(0.010850694444444444,0,0,0.010850694444444444,62.45659722222221,0)" xlink:href="#ah"/></g><path d="M180 0v-1490h901v168H370v510h643v168H370V0H180" id="ax"/><g id="p"><use transform="matrix(0.010850694444444444,0,0,0.010850694444444444,0,0)" xlink:href="#ax"/><use transform="matrix(0.010850694444444444,0,0,0.010850694444444444,13.118489583333332,0)" xlink:href="#aj"/></g><path d="M140 405l46-156c120 36 205 19 263-150l32-93L54-1118h197c107 313 237 620 324 950 87-331 219-637 326-950h196L606 167c-68 178-176 259-334 259-64 0-113-12-132-21" id="ay"/><g id="q"><use transform="matrix(0.010850694444444444,0,0,0.010850694444444444,0,0)" xlink:href="#X"/><use transform="matrix(0.010850694444444444,0,0,0.010850694444444444,12.91232638888889,0)" xlink:href="#ao"/><use transform="matrix(0.010850694444444444,0,0,0.010850694444444444,25.390625,0)" xlink:href="#al"/><use transform="matrix(0.010850694444444444,0,0,0.010850694444444444,32.443576388888886,0)" xlink:href="#aa"/><use transform="matrix(0.010850694444444444,0,0,0.010850694444444444,45.39930555555556,0)" xlink:href="#ap"/><use transform="matrix(0.010850694444444444,0,0,0.010850694444444444,59.02777777777778,0)" xlink:href="#Y"/><use transform="matrix(0.010850694444444444,0,0,0.010850694444444444,72.35243055555554,0)" xlink:href="#ab"/><use transform="matrix(0.010850694444444444,0,0,0.010850694444444444,81.06553819444444,0)" xlink:href="#ay"/><use transform="matrix(0.010850694444444444,0,0,0.010850694444444444,91.796875,0)" xlink:href="#at"/><use transform="matrix(0.010850694444444444,0,0,0.010850694444444444,102.6801215277778,0)" xlink:href="#ag"/><use transform="matrix(0.010850694444444444,0,0,0.010850694444444444,108.06206597222224,0)" xlink:href="#ah"/></g><g id="r"><use transform="matrix(0.010850694444444444,0,0,0.010850694444444444,0,0)" xlink:href="#ak"/><use transform="matrix(0.010850694444444444,0,0,0.010850694444444444,13.129340277777777,0)" xlink:href="#ao"/><use transform="matrix(0.010850694444444444,0,0,0.010850694444444444,25.60763888888889,0)" xlink:href="#Z"/><use transform="matrix(0.010850694444444444,0,0,0.010850694444444444,45.07378472222221,0)" xlink:href="#aa"/></g><g id="s"><use transform="matrix(0.010850694444444444,0,0,0.010850694444444444,0,0)" xlink:href="#ah"/><use transform="matrix(0.010850694444444444,0,0,0.010850694444444444,13.606770833333332,0)" xlink:href="#aa"/><use transform="matrix(0.010850694444444444,0,0,0.010850694444444444,26.5625,0)" xlink:href="#an"/><use transform="matrix(0.010850694444444444,0,0,0.010850694444444444,38.29210069444444,0)" xlink:href="#X"/><use transform="matrix(0.010850694444444444,0,0,0.010850694444444444,50.98741319444444,0)" xlink:href="#ab"/><use transform="matrix(0.010850694444444444,0,0,0.010850694444444444,59.70052083333333,0)" xlink:href="#ag"/><use transform="matrix(0.010850694444444444,0,0,0.010850694444444444,65.08246527777777,0)" xlink:href="#ar"/><use transform="matrix(0.010850694444444444,0,0,0.010850694444444444,78.6892361111111,0)" xlink:href="#al"/><use transform="matrix(0.010850694444444444,0,0,0.010850694444444444,85.95920138888887,0)" xlink:href="#ag"/><use transform="matrix(0.010850694444444444,0,0,0.010850694444444444,91.34114583333331,0)" xlink:href="#Y"/><use transform="matrix(0.010850694444444444,0,0,0.010850694444444444,104.66579861111109,0)" xlink:href="#ak"/></g><path d="M65 0l393-574-370-544h210c88 136 192 297 267 435 67-142 176-302 264-435h206L661-564 1053 0H844c-94-144-206-310-287-458C484-308 366-142 273 0H65" id="az"/><g id="t"><use transform="matrix(0.010850694444444444,0,0,0.010850694444444444,0,0)" xlink:href="#al"/><use transform="matrix(0.010850694444444444,0,0,0.010850694444444444,7.052951388888888,0)" xlink:href="#aa"/><use transform="matrix(0.010850694444444444,0,0,0.010850694444444444,19.50954861111111,0)" xlink:href="#az"/><use transform="matrix(0.010850694444444444,0,0,0.010850694444444444,32.07465277777778,0)" xlink:href="#al"/></g><g id="u"><use transform="matrix(0.010850694444444444,0,0,0.010850694444444444,0,0)" xlink:href="#ar"/><use transform="matrix(0.010850694444444444,0,0,0.010850694444444444,13.606770833333332,0)" xlink:href="#ab"/><use transform="matrix(0.010850694444444444,0,0,0.010850694444444444,22.31987847222222,0)" xlink:href="#ag"/><use transform="matrix(0.010850694444444444,0,0,0.010850694444444444,27.701822916666664,0)" xlink:href="#X"/><use transform="matrix(0.010850694444444444,0,0,0.010850694444444444,40.397135416666664,0)" xlink:href="#aa"/></g><g id="v"><use transform="matrix(0.010850694444444444,0,0,0.010850694444444444,0,0)" xlink:href="#ah"/><use transform="matrix(0.010850694444444444,0,0,0.010850694444444444,13.606770833333332,0)" xlink:href="#aa"/><use transform="matrix(0.010850694444444444,0,0,0.010850694444444444,26.5625,0)" xlink:href="#X"/><use transform="matrix(0.010850694444444444,0,0,0.010850694444444444,39.2578125,0)" xlink:href="#ag"/><use transform="matrix(0.010850694444444444,0,0,0.010850694444444444,44.63975694444444,0)" xlink:href="#Z"/><use transform="matrix(0.010850694444444444,0,0,0.010850694444444444,64.10590277777777,0)" xlink:href="#ao"/><use transform="matrix(0.010850694444444444,0,0,0.010850694444444444,76.58420138888889,0)" xlink:href="#aq"/></g><path d="M158 0v-1490h180v865h22l478-493h223L593-638 1096 0H865L456-523 338-412V0H158" id="aA"/><path d="M1096 418H916v-591h-14C865-111 790 24 577 24c-279 0-473-224-473-580 0-354 195-576 474-576 218 0 287 134 324 193h20v-179h174V418zM604-137c203 0 314-172 314-421 0-247-108-413-314-413-212 0-317 181-317 413 0 235 108 421 317 421" id="aB"/><g id="w"><use transform="matrix(0.010850694444444444,0,0,0.010850694444444444,0,0)" xlink:href="#an"/><use transform="matrix(0.010850694444444444,0,0,0.010850694444444444,11.729600694444445,0)" xlink:href="#al"/><use transform="matrix(0.010850694444444444,0,0,0.010850694444444444,18.782552083333332,0)" xlink:href="#Y"/><use transform="matrix(0.010850694444444444,0,0,0.010850694444444444,32.10720486111111,0)" xlink:href="#X"/><use transform="matrix(0.010850694444444444,0,0,0.010850694444444444,44.80251736111111,0)" xlink:href="#aA"/><use transform="matrix(0.010850694444444444,0,0,0.010850694444444444,56.998697916666664,0)" xlink:href="#at"/><use transform="matrix(0.010850694444444444,0,0,0.010850694444444444,67.13324652777777,0)" xlink:href="#aB"/><use transform="matrix(0.010850694444444444,0,0,0.010850694444444444,80.7400173611111,0)" xlink:href="#am"/><use transform="matrix(0.010850694444444444,0,0,0.010850694444444444,93.88020833333331,0)" xlink:href="#ao"/><use transform="matrix(0.010850694444444444,0,0,0.010850694444444444,106.35850694444441,0)" xlink:href="#ak"/><use transform="matrix(0.010850694444444444,0,0,0.010850694444444444,119.4878472222222,0)" xlink:href="#al"/><use transform="matrix(0.010850694444444444,0,0,0.010850694444444444,126.75781249999997,0)" xlink:href="#ag"/><use transform="matrix(0.010850694444444444,0,0,0.010850694444444444,132.13975694444443,0)" xlink:href="#al"/><use transform="matrix(0.010850694444444444,0,0,0.010850694444444444,139.84374999999997,0)" xlink:href="#ay"/></g><g id="x"><use transform="matrix(0.010850694444444444,0,0,0.010850694444444444,0,0)" xlink:href="#ag"/><use transform="matrix(0.010850694444444444,0,0,0.010850694444444444,5.381944444444445,0)" xlink:href="#Z"/><use transform="matrix(0.010850694444444444,0,0,0.010850694444444444,24.84809027777778,0)" xlink:href="#ao"/><use transform="matrix(0.010850694444444444,0,0,0.010850694444444444,37.326388888888886,0)" xlink:href="#ap"/><use transform="matrix(0.010850694444444444,0,0,0.010850694444444444,50.95486111111111,0)" xlink:href="#aa"/><use transform="matrix(0.010850694444444444,0,0,0.010850694444444444,63.91059027777778,0)" xlink:href="#at"/><use transform="matrix(0.010850694444444444,0,0,0.010850694444444444,74.04513888888889,0)" xlink:href="#am"/><use transform="matrix(0.010850694444444444,0,0,0.010850694444444444,87.18532986111111,0)" xlink:href="#ab"/><use transform="matrix(0.010850694444444444,0,0,0.010850694444444444,95.89843750000001,0)" xlink:href="#aq"/></g><g id="y"><use transform="matrix(0.010850694444444444,0,0,0.010850694444444444,0,0)" xlink:href="#an"/><use transform="matrix(0.010850694444444444,0,0,0.010850694444444444,11.729600694444445,0)" xlink:href="#aA"/><use transform="matrix(0.010850694444444444,0,0,0.010850694444444444,23.92578125,0)" xlink:href="#am"/></g><path d="M481 0L54-1118h197c107 314 236 620 325 951 87-331 217-637 324-951h197L670 0H481" id="aC"/><g id="z"><use transform="matrix(0.010850694444444444,0,0,0.010850694444444444,0,0)" xlink:href="#ag"/><use transform="matrix(0.010850694444444444,0,0,0.010850694444444444,5.381944444444445,0)" xlink:href="#an"/><use transform="matrix(0.010850694444444444,0,0,0.010850694444444444,17.11154513888889,0)" xlink:href="#at"/><use transform="matrix(0.010850694444444444,0,0,0.010850694444444444,27.24609375,0)" xlink:href="#ao"/><use transform="matrix(0.010850694444444444,0,0,0.010850694444444444,39.724392361111114,0)" xlink:href="#X"/><use transform="matrix(0.010850694444444444,0,0,0.010850694444444444,52.41970486111112,0)" xlink:href="#al"/><use transform="matrix(0.010850694444444444,0,0,0.010850694444444444,59.6896701388889,0)" xlink:href="#ag"/><use transform="matrix(0.010850694444444444,0,0,0.010850694444444444,65.07161458333334,0)" xlink:href="#aC"/><use transform="matrix(0.010850694444444444,0,0,0.010850694444444444,77.12673611111113,0)" xlink:href="#aa"/></g><path d="M677 24c-213 0-288-135-325-197h-20V0H158v-1490h180v551h14c37-59 106-193 324-193 279 0 474 222 474 576 0 356-194 580-473 580zm-27-161c209 0 317-186 317-421 0-232-105-413-317-413-206 0-314 166-314 413 0 249 111 421 314 421" id="aD"/><g id="A"><use transform="matrix(0.010850694444444444,0,0,0.010850694444444444,0,0)" xlink:href="#aD"/><use transform="matrix(0.010850694444444444,0,0,0.010850694444444444,13.606770833333332,0)" xlink:href="#Y"/><use transform="matrix(0.010850694444444444,0,0,0.010850694444444444,26.931423611111104,0)" xlink:href="#Y"/><use transform="matrix(0.010850694444444444,0,0,0.010850694444444444,40.256076388888886,0)" xlink:href="#aq"/><use transform="matrix(0.010850694444444444,0,0,0.010850694444444444,45.63802083333333,0)" xlink:href="#aa"/><use transform="matrix(0.010850694444444444,0,0,0.010850694444444444,58.81076388888888,0)" xlink:href="#ao"/><use transform="matrix(0.010850694444444444,0,0,0.010850694444444444,71.28906249999999,0)" xlink:href="#ak"/></g><g id="B"><use transform="matrix(0.010850694444444444,0,0,0.010850694444444444,0,0)" xlink:href="#am"/><use transform="matrix(0.010850694444444444,0,0,0.010850694444444444,13.140190972222221,0)" xlink:href="#ar"/><use transform="matrix(0.010850694444444444,0,0,0.010850694444444444,26.746961805555554,0)" xlink:href="#ah"/><use transform="matrix(0.010850694444444444,0,0,0.010850694444444444,40.353732638888886,0)" xlink:href="#ao"/><use transform="matrix(0.010850694444444444,0,0,0.010850694444444444,52.83203125,0)" xlink:href="#al"/><use transform="matrix(0.010850694444444444,0,0,0.010850694444444444,59.8849826388889,0)" xlink:href="#aa"/><use transform="matrix(0.010850694444444444,0,0,0.010850694444444444,72.84071180555556,0)" xlink:href="#ah"/><use transform="matrix(0.010850694444444444,0,0,0.010850694444444444,86.44748263888889,0)" xlink:href="#at"/><use transform="matrix(0.010850694444444444,0,0,0.010850694444444444,96.58203125,0)" xlink:href="#ao"/><use transform="matrix(0.010850694444444444,0,0,0.010850694444444444,109.06032986111111,0)" xlink:href="#al"/></g><g id="C"><use transform="matrix(0.010850694444444444,0,0,0.010850694444444444,0,0)" xlink:href="#au"/><use transform="matrix(0.010850694444444444,0,0,0.010850694444444444,16.9921875,0)" xlink:href="#ac"/><use transform="matrix(0.010850694444444444,0,0,0.010850694444444444,31.293402777777775,0)" xlink:href="#ad"/><use transform="matrix(0.010850694444444444,0,0,0.010850694444444444,47.33072916666667,0)" xlink:href="#V"/><use transform="matrix(0.010850694444444444,0,0,0.010850694444444444,60.687934027777786,0)" xlink:href="#ac"/></g><g id="D"><use transform="matrix(0.010850694444444444,0,0,0.010850694444444444,0,0)" xlink:href="#Y"/><use transform="matrix(0.010850694444444444,0,0,0.010850694444444444,13.324652777777777,0)" xlink:href="#ab"/><use transform="matrix(0.010850694444444444,0,0,0.010850694444444444,21.321614583333332,0)" xlink:href="#ah"/><use transform="matrix(0.010850694444444444,0,0,0.010850694444444444,34.928385416666664,0)" xlink:href="#aa"/><use transform="matrix(0.010850694444444444,0,0,0.010850694444444444,47.88411458333333,0)" xlink:href="#ab"/><use transform="matrix(0.010850694444444444,0,0,0.010850694444444444,56.249999999999986,0)" xlink:href="#at"/><use transform="matrix(0.010850694444444444,0,0,0.010850694444444444,67.13324652777777,0)" xlink:href="#ak"/><use transform="matrix(0.010850694444444444,0,0,0.010850694444444444,80.26258680555554,0)" xlink:href="#am"/><use transform="matrix(0.010850694444444444,0,0,0.010850694444444444,93.40277777777777,0)" xlink:href="#Z"/><use transform="matrix(0.010850694444444444,0,0,0.010850694444444444,112.8689236111111,0)" xlink:href="#aD"/><use transform="matrix(0.010850694444444444,0,0,0.010850694444444444,126.47569444444441,0)" xlink:href="#aa"/><use transform="matrix(0.010850694444444444,0,0,0.010850694444444444,139.4314236111111,0)" xlink:href="#ab"/></g><g id="E"><use transform="matrix(0.010850694444444444,0,0,0.010850694444444444,0,0)" xlink:href="#al"/><use transform="matrix(0.010850694444444444,0,0,0.010850694444444444,7.052951388888888,0)" xlink:href="#Y"/><use transform="matrix(0.010850694444444444,0,0,0.010850694444444444,20.377604166666664,0)" xlink:href="#al"/><use transform="matrix(0.010850694444444444,0,0,0.010850694444444444,27.75607638888889,0)" xlink:href="#ao"/><use transform="matrix(0.010850694444444444,0,0,0.010850694444444444,40.234375,0)" xlink:href="#aq"/><use transform="matrix(0.010850694444444444,0,0,0.010850694444444444,45.61631944444444,0)" xlink:href="#at"/><use transform="matrix(0.010850694444444444,0,0,0.010850694444444444,55.75086805555555,0)" xlink:href="#ao"/><use transform="matrix(0.010850694444444444,0,0,0.010850694444444444,68.22916666666667,0)" xlink:href="#Z"/><use transform="matrix(0.010850694444444444,0,0,0.010850694444444444,87.6953125,0)" xlink:href="#Y"/><use transform="matrix(0.010850694444444444,0,0,0.010850694444444444,101.01996527777777,0)" xlink:href="#am"/><use transform="matrix(0.010850694444444444,0,0,0.010850694444444444,114.16015625,0)" xlink:href="#ak"/><use transform="matrix(0.010850694444444444,0,0,0.010850694444444444,127.28949652777777,0)" xlink:href="#al"/></g><g id="F"><use transform="matrix(0.010850694444444444,0,0,0.010850694444444444,0,0)" xlink:href="#an"/><use transform="matrix(0.010850694444444444,0,0,0.010850694444444444,11.729600694444445,0)" xlink:href="#al"/><use transform="matrix(0.010850694444444444,0,0,0.010850694444444444,19.108072916666668,0)" xlink:href="#ao"/><use transform="matrix(0.010850694444444444,0,0,0.010850694444444444,31.586371527777775,0)" xlink:href="#al"/><use transform="matrix(0.010850694444444444,0,0,0.010850694444444444,38.85633680555556,0)" xlink:href="#am"/><use transform="matrix(0.010850694444444444,0,0,0.010850694444444444,51.99652777777778,0)" xlink:href="#an"/></g><path d="M338-670V0H158v-1490h180v566c73-149 190-208 336-208 226 0 379 139 379 422V0H872v-695c0-172-96-275-252-275-161 0-282 109-282 300" id="aE"/><g id="G"><use transform="matrix(0.010850694444444444,0,0,0.010850694444444444,0,0)" xlink:href="#an"/><use transform="matrix(0.010850694444444444,0,0,0.010850694444444444,11.729600694444445,0)" xlink:href="#aE"/><use transform="matrix(0.010850694444444444,0,0,0.010850694444444444,24.869791666666664,0)" xlink:href="#ag"/><use transform="matrix(0.010850694444444444,0,0,0.010850694444444444,30.251736111111104,0)" xlink:href="#ar"/><use transform="matrix(0.010850694444444444,0,0,0.010850694444444444,43.85850694444444,0)" xlink:href="#ar"/><use transform="matrix(0.010850694444444444,0,0,0.010850694444444444,57.46527777777778,0)" xlink:href="#ag"/><use transform="matrix(0.010850694444444444,0,0,0.010850694444444444,62.84722222222221,0)" xlink:href="#ak"/><use transform="matrix(0.010850694444444444,0,0,0.010850694444444444,75.97656249999999,0)" xlink:href="#ap"/><use transform="matrix(0.010850694444444444,0,0,0.010850694444444444,89.6050347222222,0)" xlink:href="#at"/><use transform="matrix(0.010850694444444444,0,0,0.010850694444444444,99.73958333333331,0)" xlink:href="#ao"/><use transform="matrix(0.010850694444444444,0,0,0.010850694444444444,112.21788194444441,0)" xlink:href="#ah"/><use transform="matrix(0.010850694444444444,0,0,0.010850694444444444,125.82465277777776,0)" xlink:href="#ah"/><use transform="matrix(0.010850694444444444,0,0,0.010850694444444444,139.4314236111111,0)" xlink:href="#ab"/><use transform="matrix(0.010850694444444444,0,0,0.010850694444444444,147.42838541666663,0)" xlink:href="#aa"/><use transform="matrix(0.010850694444444444,0,0,0.010850694444444444,160.3841145833333,0)" xlink:href="#an"/><use transform="matrix(0.010850694444444444,0,0,0.010850694444444444,172.11371527777774,0)" xlink:href="#an"/></g><g id="H"><use transform="matrix(0.010850694444444444,0,0,0.010850694444444444,0,0)" xlink:href="#ak"/><use transform="matrix(0.010850694444444444,0,0,0.010850694444444444,13.129340277777777,0)" xlink:href="#Y"/><use transform="matrix(0.010850694444444444,0,0,0.010850694444444444,26.453993055555554,0)" xlink:href="#al"/><use transform="matrix(0.010850694444444444,0,0,0.010850694444444444,33.50694444444444,0)" xlink:href="#aa"/><use transform="matrix(0.010850694444444444,0,0,0.010850694444444444,46.46267361111111,0)" xlink:href="#an"/></g><g id="I"><use transform="matrix(0.010850694444444444,0,0,0.010850694444444444,0,0)" xlink:href="#Y"/><use transform="matrix(0.010850694444444444,0,0,0.010850694444444444,13.324652777777777,0)" xlink:href="#ab"/><use transform="matrix(0.010850694444444444,0,0,0.010850694444444444,21.321614583333332,0)" xlink:href="#ah"/><use transform="matrix(0.010850694444444444,0,0,0.010850694444444444,34.928385416666664,0)" xlink:href="#aa"/><use transform="matrix(0.010850694444444444,0,0,0.010850694444444444,47.88411458333333,0)" xlink:href="#ab"/><use transform="matrix(0.010850694444444444,0,0,0.010850694444444444,56.249999999999986,0)" xlink:href="#at"/><use transform="matrix(0.010850694444444444,0,0,0.010850694444444444,66.3845486111111,0)" xlink:href="#ah"/><use transform="matrix(0.010850694444444444,0,0,0.010850694444444444,79.99131944444443,0)" xlink:href="#ao"/><use transform="matrix(0.010850694444444444,0,0,0.010850694444444444,92.46961805555556,0)" xlink:href="#al"/><use transform="matrix(0.010850694444444444,0,0,0.010850694444444444,99.52256944444441,0)" xlink:href="#aa"/></g><path d="M370-1490V0H180v-1490h190" id="aF"/><path d="M180 0v-1490h270l367 940c28 72 75 218 110 339 35-117 81-264 110-339l362-940h271V0h-187c2-448-5-837 7-1287-157 497-311 829-483 1287H842C666-458 514-784 354-1284c12 438 5 843 7 1284H180" id="aG"/><g id="J"><use transform="matrix(0.010850694444444444,0,0,0.010850694444444444,0,0)" xlink:href="#au"/><use transform="matrix(0.010850694444444444,0,0,0.010850694444444444,16.9921875,0)" xlink:href="#ac"/><use transform="matrix(0.010850694444444444,0,0,0.010850694444444444,31.293402777777775,0)" xlink:href="#ad"/><use transform="matrix(0.010850694444444444,0,0,0.010850694444444444,47.33072916666667,0)" xlink:href="#V"/><use transform="matrix(0.010850694444444444,0,0,0.010850694444444444,60.687934027777786,0)" xlink:href="#ac"/><use transform="matrix(0.010850694444444444,0,0,0.010850694444444444,74.98914930555556,0)" xlink:href="#at"/><use transform="matrix(0.010850694444444444,0,0,0.010850694444444444,85.87239583333334,0)" xlink:href="#aF"/><use transform="matrix(0.010850694444444444,0,0,0.010850694444444444,91.8402777777778,0)" xlink:href="#aw"/><use transform="matrix(0.010850694444444444,0,0,0.010850694444444444,106.18489583333334,0)" xlink:href="#V"/><use transform="matrix(0.010850694444444444,0,0,0.010850694444444444,119.54210069444446,0)" xlink:href="#aG"/></g><g id="K"><use transform="matrix(0.010850694444444444,0,0,0.010850694444444444,0,0)" xlink:href="#Y"/><use transform="matrix(0.010850694444444444,0,0,0.010850694444444444,13.324652777777777,0)" xlink:href="#ab"/><use transform="matrix(0.010850694444444444,0,0,0.010850694444444444,21.321614583333332,0)" xlink:href="#ah"/><use transform="matrix(0.010850694444444444,0,0,0.010850694444444444,34.928385416666664,0)" xlink:href="#aa"/><use transform="matrix(0.010850694444444444,0,0,0.010850694444444444,47.88411458333333,0)" xlink:href="#ab"/><use transform="matrix(0.010850694444444444,0,0,0.010850694444444444,56.249999999999986,0)" xlink:href="#at"/><use transform="matrix(0.010850694444444444,0,0,0.010850694444444444,67.13324652777777,0)" xlink:href="#ag"/><use transform="matrix(0.010850694444444444,0,0,0.010850694444444444,72.51519097222221,0)" xlink:href="#ah"/></g><g id="L"><use transform="matrix(0.010850694444444444,0,0,0.010850694444444444,0,0)" xlink:href="#ar"/><use transform="matrix(0.010850694444444444,0,0,0.010850694444444444,13.606770833333332,0)" xlink:href="#ab"/><use transform="matrix(0.010850694444444444,0,0,0.010850694444444444,21.603732638888886,0)" xlink:href="#Y"/><use transform="matrix(0.010850694444444444,0,0,0.010850694444444444,34.928385416666664,0)" xlink:href="#ah"/><use transform="matrix(0.010850694444444444,0,0,0.010850694444444444,48.53515625,0)" xlink:href="#am"/><use transform="matrix(0.010850694444444444,0,0,0.010850694444444444,61.67534722222222,0)" xlink:href="#X"/><use transform="matrix(0.010850694444444444,0,0,0.010850694444444444,74.37065972222223,0)" xlink:href="#al"/><use transform="matrix(0.010850694444444444,0,0,0.010850694444444444,81.640625,0)" xlink:href="#at"/><use transform="matrix(0.010850694444444444,0,0,0.010850694444444444,92.5238715277778,0)" xlink:href="#ag"/><use transform="matrix(0.010850694444444444,0,0,0.010850694444444444,97.90581597222221,0)" xlink:href="#ah"/></g><g id="M"><use transform="matrix(0.010850694444444444,0,0,0.010850694444444444,0,0)" xlink:href="#aB"/><use transform="matrix(0.010850694444444444,0,0,0.010850694444444444,13.606770833333332,0)" xlink:href="#am"/><use transform="matrix(0.010850694444444444,0,0,0.010850694444444444,26.746961805555554,0)" xlink:href="#ao"/><use transform="matrix(0.010850694444444444,0,0,0.010850694444444444,39.225260416666664,0)" xlink:href="#ak"/><use transform="matrix(0.010850694444444444,0,0,0.010850694444444444,52.35460069444444,0)" xlink:href="#al"/><use transform="matrix(0.010850694444444444,0,0,0.010850694444444444,59.62456597222222,0)" xlink:href="#ag"/><use transform="matrix(0.010850694444444444,0,0,0.010850694444444444,65.00651041666667,0)" xlink:href="#al"/><use transform="matrix(0.010850694444444444,0,0,0.010850694444444444,72.71050347222221,0)" xlink:href="#ay"/></g><g id="N"><use transform="matrix(0.010850694444444444,0,0,0.010850694444444444,0,0)" xlink:href="#am"/><use transform="matrix(0.010850694444444444,0,0,0.010850694444444444,13.140190972222221,0)" xlink:href="#ak"/><use transform="matrix(0.010850694444444444,0,0,0.010850694444444444,26.26953125,0)" xlink:href="#ag"/><use transform="matrix(0.010850694444444444,0,0,0.010850694444444444,31.651475694444443,0)" xlink:href="#al"/><use transform="matrix(0.010850694444444444,0,0,0.010850694444444444,38.92144097222222,0)" xlink:href="#at"/><use transform="matrix(0.010850694444444444,0,0,0.010850694444444444,49.8046875,0)" xlink:href="#ar"/><use transform="matrix(0.010850694444444444,0,0,0.010850694444444444,63.41145833333333,0)" xlink:href="#ab"/><use transform="matrix(0.010850694444444444,0,0,0.010850694444444444,72.12456597222221,0)" xlink:href="#ag"/><use transform="matrix(0.010850694444444444,0,0,0.010850694444444444,77.50651041666666,0)" xlink:href="#X"/><use transform="matrix(0.010850694444444444,0,0,0.010850694444444444,90.20182291666666,0)" xlink:href="#aa"/></g><g id="O"><use transform="matrix(0.010850694444444444,0,0,0.010850694444444444,0,0)" xlink:href="#an"/><use transform="matrix(0.010850694444444444,0,0,0.010850694444444444,11.729600694444445,0)" xlink:href="#am"/><use transform="matrix(0.010850694444444444,0,0,0.010850694444444444,24.869791666666664,0)" xlink:href="#aD"/><use transform="matrix(0.010850694444444444,0,0,0.010850694444444444,38.4765625,0)" xlink:href="#al"/><use transform="matrix(0.010850694444444444,0,0,0.010850694444444444,45.5295138888889,0)" xlink:href="#Y"/><use transform="matrix(0.010850694444444444,0,0,0.010850694444444444,58.85416666666667,0)" xlink:href="#al"/><use transform="matrix(0.010850694444444444,0,0,0.010850694444444444,66.23263888888889,0)" xlink:href="#ao"/><use transform="matrix(0.010850694444444444,0,0,0.010850694444444444,78.7109375,0)" xlink:href="#aq"/></g><path d="M52 0l541-1490h220L1361 0h-200l-149-416H398L254 0H52zm404-582h497c-103-290-145-390-251-756-108 377-145 460-246 756" id="aH"/><path d="M789 20c-398 0-667-293-667-764 0-473 273-766 655-766 315 0 558 198 612 487h-196c-61-191-204-311-415-311-262 0-471 207-471 590 0 380 208 588 482 588 249 0 420-165 425-427H828v-166h572v163c0 370-256 606-611 606" id="aI"/><path d="M600 0v-610L52-1490h220l295 481c50 82 90 150 130 243 40-96 80-164 128-243l294-481h219L790-610V0H600" id="aJ"/><g id="P"><use transform="matrix(0.010850694444444444,0,0,0.010850694444444444,0,0)" xlink:href="#av"/><use transform="matrix(0.010850694444444444,0,0,0.010850694444444444,15.79861111111111,0)" xlink:href="#aH"/><use transform="matrix(0.010850694444444444,0,0,0.010850694444444444,29.242621527777775,0)" xlink:href="#aw"/><use transform="matrix(0.010850694444444444,0,0,0.010850694444444444,43.587239583333336,0)" xlink:href="#V"/><use transform="matrix(0.010850694444444444,0,0,0.010850694444444444,56.94444444444444,0)" xlink:href="#aI"/><use transform="matrix(0.010850694444444444,0,0,0.010850694444444444,73.52430555555556,0)" xlink:href="#au"/><use transform="matrix(0.010850694444444444,0,0,0.010850694444444444,90.51649305555556,0)" xlink:href="#ac"/><use transform="matrix(0.010850694444444444,0,0,0.010850694444444444,104.28602430555556,0)" xlink:href="#aJ"/></g><path fill="#3a414a" d="M628 22C291 22 81-210 81-554c0-346 210-578 547-578 265 0 455 142 497 372l-279 52c-25-116-99-188-215-188-160 0-244 139-244 341 0 200 84 341 244 341 116 0 193-74 217-195l279 51C1085-123 896 22 628 22" id="aK"/><path fill="#3a414a" d="M128 0v-1118h290v195h12c54-169 184-238 367-200v268c-27-8-86-15-130-15-138 0-239 95-239 234V0H128" id="aL"/><path fill="#3a414a" d="M633 22C291 22 81-200 81-553c0-345 210-579 537-579 292 0 525 185 525 567v84H378c7 183 109 277 260 277 105 0 184-46 216-132l272 51C1071-99 893 22 633 22zM380-669h474c-15-146-94-237-233-237-143 0-229 99-241 237" id="aM"/><path fill="#3a414a" d="M440 22C227 22 68-92 68-313c0-250 202-322 422-343 195-21 271-24 271-105 0-95-63-149-175-149-116 0-187 57-211 129l-275-46c57-194 237-305 487-305 240 0 474 108 474 379V0H777v-155h-10C713-51 605 22 440 22zm85-211c140 0 238-93 238-211v-121c-37 26-156 42-222 51-111 16-185 59-185 149 0 87 70 132 169 132" id="aN"/><path fill="#3a414a" d="M683-1118v229H474v562c0 71 29 104 102 104 23 0 73-7 95-13l43 225C647 9 580 16 520 16 296 16 174-96 174-301v-588H20v-229h154v-266h300v266h209" id="aO"/><path fill="#3a414a" d="M572 22C302 22 117-98 78-306l279-48c29 105 101 156 224 156 114 0 185-48 185-115 0-118-228-130-337-155-215-49-322-150-322-317 0-215 187-347 470-347 265 0 424 116 466 298l-266 47c-24-76-87-130-196-130-98 0-174 46-174 113 0 56 38 95 144 117l201 40c216 44 320 143 320 302 0 220-207 367-500 367" id="aP"/><g id="Q"><use transform="matrix(0.008680555555555556,0,0,0.008680555555555556,0,0)" xlink:href="#aK"/><use transform="matrix(0.008680555555555556,0,0,0.008680555555555556,10.460069444444445,0)" xlink:href="#aL"/><use transform="matrix(0.008680555555555556,0,0,0.008680555555555556,17.265625,0)" xlink:href="#aM"/><use transform="matrix(0.008680555555555556,0,0,0.008680555555555556,28.02951388888889,0)" xlink:href="#aN"/><use transform="matrix(0.008680555555555556,0,0,0.008680555555555556,38.35069444444444,0)" xlink:href="#aO"/><use transform="matrix(0.008680555555555556,0,0,0.008680555555555556,44.68749999999999,0)" xlink:href="#aM"/><use transform="matrix(0.008680555555555556,0,0,0.008680555555555556,55.27777777777777,0)" xlink:href="#aP"/></g><path fill="#3a414a" d="M128 418v-1536h295v188h14c41-89 129-202 319-202 248 0 453 193 453 575 0 372-197 576-455 576-183 0-275-108-317-198h-9v597H128zm534-640c156 0 240-139 240-336 0-196-83-334-240-334-154 0-241 131-241 334 0 202 88 336 241 336" id="aQ"/><path fill="#3a414a" d="M428-1490V0H128v-1490h300" id="aR"/><g id="R"><use transform="matrix(0.008680555555555556,0,0,0.008680555555555556,0,0)" xlink:href="#aQ"/><use transform="matrix(0.008680555555555556,0,0,0.008680555555555556,11.206597222222223,0)" xlink:href="#aR"/><use transform="matrix(0.008680555555555556,0,0,0.008680555555555556,16.024305555555557,0)" xlink:href="#aN"/><use transform="matrix(0.008680555555555556,0,0,0.008680555555555556,26.345486111111118,0)" xlink:href="#aK"/><use transform="matrix(0.008680555555555556,0,0,0.008680555555555556,36.80555555555556,0)" xlink:href="#aM"/><use transform="matrix(0.008680555555555556,0,0,0.008680555555555556,47.395833333333336,0)" xlink:href="#aP"/></g><path fill="#3a414a" d="M628 22C291 22 81-210 81-554c0-346 210-578 547-578 336 0 547 232 547 578 0 344-211 576-547 576zm0-236c160 0 242-146 242-341 0-197-82-341-242-341S387-753 387-555c0 195 81 341 241 341" id="aS"/><path fill="#3a414a" d="M428-647V0H128v-1118h283l4 231c63-156 176-245 348-245 232 0 384 159 384 421V0H847v-659c0-139-76-222-202-222-128 0-217 86-217 234" id="aT"/><path fill="#3a414a" d="M128 0v-1118h300V0H128zm150-1264c-91 0-165-68-165-154 0-85 74-154 165-154 90 0 165 69 165 154 0 86-75 154-165 154" id="aU"/><g id="S"><use transform="matrix(0.008680555555555556,0,0,0.008680555555555556,0,0)" xlink:href="#aK"/><use transform="matrix(0.008680555555555556,0,0,0.008680555555555556,10.460069444444445,0)" xlink:href="#aS"/><use transform="matrix(0.008680555555555556,0,0,0.008680555555555556,21.36284722222222,0)" xlink:href="#aT"/><use transform="matrix(0.008680555555555556,0,0,0.008680555555555556,32.43055555555556,0)" xlink:href="#aO"/><use transform="matrix(0.008680555555555556,0,0,0.008680555555555556,39.02777777777778,0)" xlink:href="#aN"/><use transform="matrix(0.008680555555555556,0,0,0.008680555555555556,49.348958333333336,0)" xlink:href="#aU"/><use transform="matrix(0.008680555555555556,0,0,0.008680555555555556,54.16666666666667,0)" xlink:href="#aT"/><use transform="matrix(0.008680555555555556,0,0,0.008680555555555556,65.234375,0)" xlink:href="#aP"/></g><path fill="#3a414a" d="M428-647V0H128v-1490h294v586c65-146 175-228 341-228 232 0 385 159 385 421V0H847v-659c0-139-76-222-202-222-128 0-217 86-217 234" id="aV"/><g id="T"><use transform="matrix(0.008680555555555556,0,0,0.008680555555555556,0,0)" xlink:href="#aV"/><use transform="matrix(0.008680555555555556,0,0,0.008680555555555556,11.067708333333334,0)" xlink:href="#aN"/><use transform="matrix(0.008680555555555556,0,0,0.008680555555555556,21.38888888888889,0)" xlink:href="#aP"/></g><path fill="#3a414a" d="M625 442c-280 0-454-114-503-274l258-72c28 63 97 128 243 128 153 0 246-69 246-216v-206h-23C805-108 717-16 536-16 284-16 81-191 81-561c0-378 208-571 456-571 188 0 280 113 321 202h13v-188h295V-9c0 303-226 451-541 451zm5-686c153 0 240-119 240-319 0-198-86-329-240-329-158 0-241 137-241 329 0 195 85 319 241 319" id="aW"/><path fill="#3a414a" d="M120 0v-182l551-686v-8H137v-242h897v199L514-250v8h539V0H120" id="aX"/><g id="U"><use transform="matrix(0.008680555555555556,0,0,0.008680555555555556,0,0)" xlink:href="#aK"/><use transform="matrix(0.008680555555555556,0,0,0.008680555555555556,10.633680555555555,0)" xlink:href="#aN"/><use transform="matrix(0.008680555555555556,0,0,0.008680555555555556,20.95486111111111,0)" xlink:href="#aO"/><use transform="matrix(0.008680555555555556,0,0,0.008680555555555556,27.291666666666668,0)" xlink:href="#aM"/><use transform="matrix(0.008680555555555556,0,0,0.008680555555555556,37.88194444444444,0)" xlink:href="#aW"/><use transform="matrix(0.008680555555555556,0,0,0.008680555555555556,49.11458333333333,0)" xlink:href="#aS"/><use transform="matrix(0.008680555555555556,0,0,0.008680555555555556,60.01736111111111,0)" xlink:href="#aL"/><use transform="matrix(0.008680555555555556,0,0,0.008680555555555556,67.38715277777777,0)" xlink:href="#aU"/><use transform="matrix(0.008680555555555556,0,0,0.008680555555555556,72.2048611111111,0)" xlink:href="#aX"/><use transform="matrix(0.008680555555555556,0,0,0.008680555555555556,82.03125,0)" xlink:href="#aM"/><use transform="matrix(0.008680555555555556,0,0,0.008680555555555556,92.62152777777777,0)" xlink:href="#aP"/></g></defs></g></svg>